<svg aria-hidden="true" style="position: absolute; width: 0; height: 0; overflow: hidden;" version="1.1" xmlns="http://www.w3.org/2000/svg" xmlns:xlink="http://www.w3.org/1999/xlink">
<defs>
<symbol id="v-align-top" viewBox="0 0 24 24">
<title>v-align-top</title>
<path d="M3.984 3h16.031v2.016h-16.031v-2.016zM8.016 11.016l3.984-4.031 3.984 4.031h-3v9.984h-1.969v-9.984h-3z"></path>
</symbol>
<symbol id="v-align-center" viewBox="0 0 24 24">
<title>v-align-center</title>
<path d="M3.984 11.016h16.031v1.969h-16.031v-1.969zM15.984 5.016l-3.984 3.984-3.984-3.984h3v-4.031h1.969v4.031h3zM8.016 18.984l3.984-3.984 3.984 3.984h-3v4.031h-1.969v-4.031h-3z"></path>
</symbol>
<symbol id="v-align-bottom" viewBox="0 0 24 24">
<title>v-align-bottom</title>
<path d="M3.984 18.984h16.031v2.016h-16.031v-2.016zM15.984 12.984l-3.984 4.031-3.984-4.031h3v-9.984h1.969v9.984h3z"></path>
</symbol>
<symbol id="x-align-center" viewBox="0 0 20 20">
<title>x-align-center</title>
<path d="M8 10l-3-3v2h-4v2h4v2l3-3zM15 13v-2h4v-2h-4v-2l-3 3 3 3zM10 18c0.553 0 1-0.049 1-0.6v-14.8c0-0.553-0.447-0.6-1-0.6-0.552 0-1 0.047-1 0.6v14.8c0 0.551 0.448 0.6 1 0.6z"></path>
</symbol>
<symbol id="x-align-left" viewBox="0 0 20 20">
<title>x-align-left</title>
<path d="M6 10l3 3v-2h8v-2h-8v-2l-3 3zM4 2c-0.553 0-1 0.047-1 0.6v14.8c0 0.551 0.447 0.6 1 0.6 0.552 0 1-0.049 1-0.6v-14.8c0-0.553-0.448-0.6-1-0.6z"></path>
</symbol>
<symbol id="x-align-right" viewBox="0 0 20 20">
<title>x-align-right</title>
<path d="M11 7v2h-8v2h8v2l3-3-3-3zM15 2.6v14.8c0 0.551 0.448 0.6 1 0.6 0.553 0 1-0.049 1-0.6v-14.8c0-0.553-0.447-0.6-1-0.6-0.552 0-1 0.047-1 0.6z"></path>
</symbol>

<symbol id="bloc-intro" viewBox="0 0 80 80"><defs><style>.cls-1{fill:#00a7c9;}</style></defs><path class="cls-1" d="M60.03589,72.96727H12.2395A7.24751,7.24751,0,0,1,5,65.72777V17.93138a7.24751,7.24751,0,0,1,7.2395-7.2395H35.01635a1.26506,1.26506,0,0,1,0,2.53012H12.2395a4.71462,4.71462,0,0,0-4.70938,4.70938V65.72777a4.71462,4.71462,0,0,0,4.70938,4.70938H60.03589a4.71462,4.71462,0,0,0,4.70938-4.70938V41.82916a1.26506,1.26506,0,0,1,2.53012,0V65.72777A7.24751,7.24751,0,0,1,60.03589,72.96727Z"/><path class="cls-1" d="M60.03564,73.46729H12.23975A7.74869,7.74869,0,0,1,4.5,65.72754V17.93115a7.74827,7.74827,0,0,1,7.73975-7.73926H35.01611a1.76514,1.76514,0,1,1,0,3.53028H12.23975a4.21391,4.21391,0,0,0-4.20948,4.209V65.72754A4.214,4.214,0,0,0,12.23975,69.937H60.03564a4.214,4.214,0,0,0,4.20948-4.20947V41.8291a1.76514,1.76514,0,1,1,3.53027,0V65.72754A7.74869,7.74869,0,0,1,60.03564,73.46729ZM12.23975,11.19189A6.74728,6.74728,0,0,0,5.5,17.93115V65.72754a6.74738,6.74738,0,0,0,6.73975,6.73975H60.03564a6.74738,6.74738,0,0,0,6.73975-6.73975V41.8291a.76514.76514,0,1,0-1.53027,0V65.72754A5.21532,5.21532,0,0,1,60.03564,70.937H12.23975a5.21532,5.21532,0,0,1-5.20948-5.20947V17.93115a5.21521,5.21521,0,0,1,5.20948-5.209H35.01611a.76514.76514,0,0,0,0-1.53028Z"/><path class="cls-1" d="M45.09977,46.08145H33.15006A1.26539,1.26539,0,0,1,31.885,44.81639V32.8675a1.26562,1.26562,0,0,1,.37062-.89444l27.7605-27.7605a4.25911,4.25911,0,0,1,6.014,0l7.72461,7.72461a4.25213,4.25213,0,0,1,0,6.01316L45.99421,45.71082A1.26559,1.26559,0,0,1,45.09977,46.08145ZM34.41512,43.55133H44.576L71.96583,16.16145a1.72441,1.72441,0,0,0,0-2.4354L64.24122,6.00144a1.7269,1.7269,0,0,0-2.43623,0L34.41512,33.39131Z"/><path class="cls-1" d="M45.09961,46.58154H33.1499a1.76733,1.76733,0,0,1-1.76513-1.76513V32.86768a1.75216,1.75216,0,0,1,.51757-1.248L59.6626,3.85889a4.76244,4.76244,0,0,1,6.72119-.00049l7.72461,7.7251a4.75239,4.75239,0,0,1,0,6.72021L46.34766,46.06445A1.7537,1.7537,0,0,1,45.09961,46.58154ZM63.02344,3.47021a3.74353,3.74353,0,0,0-2.65381,1.09571L32.60938,32.32666a.77093.77093,0,0,0-.22461.541V44.81641a.766.766,0,0,0,.76513.76513H45.09961a.76057.76057,0,0,0,.541-.22412L73.40137,17.59668a3.75276,3.75276,0,0,0,0-5.30615L65.67676,4.56592A3.74326,3.74326,0,0,0,63.02344,3.47021ZM44.7832,44.05127H33.915V33.18408L61.45166,5.648a2.2268,2.2268,0,0,1,3.14258-.00049l7.7251,7.7251a2.22444,2.22444,0,0,1,0,3.14258Zm-9.86816-1h9.4541L71.6123,15.80811a1.22479,1.22479,0,0,0,0-1.72852L63.8877,6.355a1.22658,1.22658,0,0,0-1.7295.00049L34.915,33.59814Z"/><path class="cls-1" d="M66.01033,25.17089a1.261,1.261,0,0,1-.89444-.37062L53.167,12.85138a1.26493,1.26493,0,0,1,1.78888-1.78888L66.90477,23.01139a1.26506,1.26506,0,0,1-.89444,2.1595Z"/><path class="cls-1" d="M66.01025,25.6709a1.7537,1.7537,0,0,1-1.248-.51709L52.81348,13.20508a1.765,1.765,0,0,1,2.49609-2.4961L67.2583,22.65771a1.76514,1.76514,0,0,1-1.24805,3.01319ZM54.06152,11.19238a.76466.76466,0,0,0-.541,1.30567L65.46924,24.44678a.78345.78345,0,0,0,1.082,0,.76593.76593,0,0,0,0-1.082L54.60254,11.416A.76425.76425,0,0,0,54.06152,11.19238Z"/><path class="cls-1" d="M30.16284,49.06867a1.26506,1.26506,0,0,1-.89444-2.1595L32.25562,43.922a1.26493,1.26493,0,0,1,1.78888,1.78887l-2.98722,2.98723A1.261,1.261,0,0,1,30.16284,49.06867Z"/><path class="cls-1" d="M30.1626,49.56885A1.76514,1.76514,0,0,1,28.915,46.55566l2.9873-2.9873A1.76483,1.76483,0,0,1,34.398,46.06445l-2.98731,2.98731A1.7537,1.7537,0,0,1,30.1626,49.56885Zm2.9873-5.51709a.76226.76226,0,0,0-.54052.22363L29.62207,47.2627a.76505.76505,0,0,0,0,1.082.78284.78284,0,0,0,1.08154,0l2.98731-2.98731a.76465.76465,0,0,0-.541-1.30566Z"/></symbol>
<symbol id="bloc-slider" viewBox="0 0 80 80"><defs><style>.cls-1{fill:#00a7c9;}</style></defs><path class="cls-1" d="M70.36148,56.16737H9.639a4.64377,4.64377,0,0,1-4.63852-4.63852V8.4067A4.64378,4.64378,0,0,1,9.639,3.76817H70.36148A4.64378,4.64378,0,0,1,75,8.4067V51.52885A4.64377,4.64377,0,0,1,70.36148,56.16737ZM9.639,6.29828A2.11037,2.11037,0,0,0,7.53054,8.4067V51.52885A2.11038,2.11038,0,0,0,9.639,53.63727H70.36148a2.11037,2.11037,0,0,0,2.10842-2.10842V8.4067a2.11037,2.11037,0,0,0-2.10842-2.10842Z"/><path class="cls-1" d="M70.36146,56.66748H9.63881a5.14436,5.14436,0,0,1-5.13818-5.13867V8.40674A5.14435,5.14435,0,0,1,9.63881,3.26807H70.36146a5.14478,5.14478,0,0,1,5.13868,5.13867V51.52881A5.14478,5.14478,0,0,1,70.36146,56.66748ZM9.63881,4.26807A4.143,4.143,0,0,0,5.50063,8.40674V51.52881a4.143,4.143,0,0,0,4.13818,4.13867H70.36146a4.14316,4.14316,0,0,0,4.13868-4.13867V8.40674a4.14316,4.14316,0,0,0-4.13868-4.13867ZM70.36146,54.13721H9.63881a2.61109,2.61109,0,0,1-2.6084-2.6084V8.40674a2.61109,2.61109,0,0,1,2.6084-2.6084H70.36146a2.61109,2.61109,0,0,1,2.6084,2.6084V51.52881A2.61109,2.61109,0,0,1,70.36146,54.13721ZM9.63881,6.79834a1.61042,1.61042,0,0,0-1.6084,1.6084V51.52881a1.61042,1.61042,0,0,0,1.6084,1.6084H70.36146a1.61042,1.61042,0,0,0,1.6084-1.6084V8.40674a1.61042,1.61042,0,0,0-1.6084-1.6084Z"/><path class="cls-1" d="M61.829,23.16565a7.132,7.132,0,1,1,7.13074-7.13157A7.13939,7.13939,0,0,1,61.829,23.16565Zm0-11.73386a4.60188,4.60188,0,1,0,4.60064,4.60229A4.60722,4.60722,0,0,0,61.829,11.43179Z"/><path class="cls-1" d="M61.82924,23.66553a7.63184,7.63184,0,1,1,7.63086-7.63135A7.64052,7.64052,0,0,1,61.82924,23.66553Zm0-14.26367a6.63184,6.63184,0,1,0,6.63086,6.63232A6.64,6.64,0,0,0,61.82924,9.40186Zm0,11.73388a5.10205,5.10205,0,1,1,5.10058-5.10156A5.10789,5.10789,0,0,1,61.82924,21.13574Zm0-9.2041a4.10205,4.10205,0,1,0,4.10058,4.10254A4.10742,4.10742,0,0,0,61.82924,11.93164Z"/><path class="cls-1" d="M6.26467,38.07778a1.26455,1.26455,0,0,1-1.0048-2.03265L21.1348,15.26648A1.26509,1.26509,0,1,1,23.146,16.80167L7.27111,37.58033A1.26434,1.26434,0,0,1,6.26467,38.07778Z"/><path class="cls-1" d="M6.26479,38.57764a1.7651,1.7651,0,0,1-1.40235-2.83643l15.875-20.77832a1.76511,1.76511,0,1,1,2.80567,2.14258L7.66859,37.88428A1.75592,1.75592,0,0,1,6.26479,38.57764Zm15.877-23.30811a.76509.76509,0,0,0-.60938.29981L5.65736,36.34863a.76473.76473,0,0,0,.14356,1.07227.78435.78435,0,0,0,1.07324-.14453l15.874-20.77832a.763.763,0,0,0-.60644-1.22852Z"/><path class="cls-1" d="M56.13458,56.16737a1.26146,1.26146,0,0,1-.95208-.43239L21.18833,16.86674a1.26483,1.26483,0,1,1,1.90417-1.66532L57.08667,54.06966a1.26463,1.26463,0,0,1-.95209,2.09771Z"/><path class="cls-1" d="M56.1349,56.66748a1.768,1.768,0,0,1-1.3291-.60352L20.81264,17.1958a1.76281,1.76281,0,0,1,.166-2.49023A1.78286,1.78286,0,0,1,22.2599,14.273a1.75385,1.75385,0,0,1,1.209.59912L57.463,53.74072a1.76464,1.76464,0,0,1-1.32813,2.92676ZM22.13881,15.269a.76461.76461,0,0,0-.57422,1.26807L55.55873,55.40576a.78628.78628,0,0,0,1.08008.07227.76488.76488,0,0,0,.07129-1.0791L22.71693,15.53027a.76308.76308,0,0,0-.52539-.25927C22.174,15.26953,22.15639,15.269,22.13881,15.269Z"/><path class="cls-1" d="M38.01534,33.92189a1.265,1.265,0,0,1-.915-2.1389L45.039,23.4712a1.26466,1.26466,0,1,1,1.8284,1.74768l-7.937,8.3118A1.26151,1.26151,0,0,1,38.01534,33.92189Z"/><path class="cls-1" d="M38.01576,34.42188a1.76513,1.76513,0,0,1-1.27637-2.98438L44.67787,23.126a1.74343,1.74343,0,0,1,1.23145-.5459,1.83538,1.83538,0,0,1,1.26269.48926,1.76453,1.76453,0,0,1,.05664,2.49462l-7.93652,8.312A1.75138,1.75138,0,0,1,38.01576,34.42188Zm7.93653-10.84229-.01856.00049a.75031.75031,0,0,0-.53125.23486l-7.94043,8.31348a.76412.76412,0,0,0,.02539,1.082.7842.7842,0,0,0,1.082-.02539L46.506,24.87354a.76464.76464,0,0,0-.02442-1.08155A.75959.75959,0,0,0,45.95229,23.57959Z"/><path class="cls-1" d="M69.76684,54.70054a1.26123,1.26123,0,0,1-.97844-.46369L44.97478,25.14641a1.26473,1.26473,0,1,1,1.95688-1.60273L70.74528,52.63412a1.265,1.265,0,0,1-.97844,2.06642Z"/><path class="cls-1" d="M69.76674,55.20068a1.76232,1.76232,0,0,1-1.36524-.64648L44.588,25.46338a1.765,1.765,0,0,1,2.73047-2.23731L71.132,52.31738a1.76508,1.76508,0,0,1-1.36523,2.8833ZM45.95033,23.58008a.75232.75232,0,0,0-.48047.17187.76391.76391,0,0,0-.1084,1.07764L69.17494,53.91992a.78311.78311,0,0,0,1.07617.10791.764.764,0,0,0,.27735-.5166.75516.75516,0,0,0-.16992-.55957L46.54506,23.86035a.76309.76309,0,0,0-.51758-.27637A.69189.69189,0,0,0,45.95033,23.58008Z"/><path class="cls-1" d="M53.37988,67.30566a.99675.99675,0,0,1-.707-.293l-4.25-4.25a.99989.99989,0,0,1,1.41406-1.41407l4.25,4.25a1,1,0,0,1-.707,1.707Z"/><path class="cls-1" d="M49.12988,71.55566a1,1,0,0,1-.707-1.707l4.25-4.25a.99989.99989,0,0,1,1.41406,1.41407l-4.25,4.25A.99675.99675,0,0,1,49.12988,71.55566Z"/><path class="cls-1" d="M53.37988,67.30566H42.51855a1,1,0,1,1,0-2H53.37988a1,1,0,0,1,0,2Z"/><path class="cls-1" d="M30.87012,71.55566a.99675.99675,0,0,1-.707-.293l-4.25-4.25a.99989.99989,0,0,1,1.41406-1.41407l4.25,4.25a1,1,0,0,1-.707,1.707Z"/><path class="cls-1" d="M26.62012,67.30566a1,1,0,0,1-.707-1.707l4.25-4.25a.99989.99989,0,0,1,1.41406,1.41407l-4.25,4.25A.99675.99675,0,0,1,26.62012,67.30566Z"/><path class="cls-1" d="M37.48145,67.30566H26.62012a1,1,0,0,1,0-2H37.48145a1,1,0,1,1,0,2Z"/></symbol>

<symbol id="bloc-doc" viewBox="0 0 80 80"><defs><style>.cls-1{fill:#00a7c9;}</style></defs><path class="cls-1" d="M62.00246,75.00026H17.99961a4.203,4.203,0,0,1-4.19875-4.19875V20.93294a1.26554,1.26554,0,0,1,.37063-.89443L28.8391,5.37089a1.26558,1.26558,0,0,1,.89444-.37062H62.00246A4.20268,4.20268,0,0,1,66.19956,9.199V70.80151A4.20214,4.20214,0,0,1,62.00246,75.00026ZM16.331,21.45676V70.80151a1.67013,1.67013,0,0,0,1.66862,1.66863H62.00246a1.66926,1.66926,0,0,0,1.667-1.66863V9.199a1.66979,1.66979,0,0,0-1.667-1.66863H30.25735Z"/><path class="cls-1" d="M62.00241,75.50026H17.99948a4.70413,4.70413,0,0,1-4.69824-4.69921V20.93288a1.77754,1.77754,0,0,1,.5166-1.248l14.668-14.66748a1.752,1.752,0,0,1,1.248-.51709H62.00241A4.70351,4.70351,0,0,1,66.69967,9.199V70.80105A4.70392,4.70392,0,0,1,62.00241,75.50026Zm-32.26856-70a.7605.7605,0,0,0-.541.22413l-14.668,14.66748a.77.77,0,0,0-.22363.541V70.80105a3.70284,3.70284,0,0,0,3.69824,3.69921H62.00241a3.702,3.702,0,0,0,3.69726-3.69921V9.199a3.7019,3.7019,0,0,0-3.69726-3.69873ZM62.00241,72.97H17.99948a2.171,2.171,0,0,1-2.16895-2.16894V21.24929L30.05026,7.03054H62.00241A2.16983,2.16983,0,0,1,64.1694,9.199V70.80105A2.16994,2.16994,0,0,1,62.00241,72.97ZM16.83053,21.66335v49.1377A1.17031,1.17031,0,0,0,17.99948,71.97H62.00241a1.16926,1.16926,0,0,0,1.167-1.16894V9.199a1.16884,1.16884,0,0,0-1.167-1.16845H30.46432Z"/><path class="cls-1" d="M26.79985,22.198H15.06592a1.26495,1.26495,0,0,1-.89443-2.15949L28.8391,5.37089a1.265,1.265,0,0,1,2.1595.89444V17.99925A4.20355,4.20355,0,0,1,26.79985,22.198Zm-8.68-2.53012h8.68a1.67067,1.67067,0,0,0,1.66863-1.66863v-8.68Z"/><path class="cls-1" d="M26.80026,22.69753H15.06588a1.76452,1.76452,0,0,1-1.248-3.0127l14.668-14.66748a1.76452,1.76452,0,0,1,3.01269,1.248V17.99929A4.7033,4.7033,0,0,1,26.80026,22.69753ZM29.73385,5.50026a.76426.76426,0,0,0-.541.22461l-14.668,14.667a.7646.7646,0,0,0,.541,1.30566H26.80026a3.70263,3.70263,0,0,0,3.69824-3.69824V6.2654a.76393.76393,0,0,0-.76465-.76514Zm-2.93359,14.668h-9.8877L28.96823,8.11208v9.88721A2.17077,2.17077,0,0,1,26.80026,20.16823Zm-7.47363-1h7.47363a1.1701,1.1701,0,0,0,1.168-1.16894V10.52614Z"/><path class="cls-1" d="M53.20139,42.73217H29.73354a1.26506,1.26506,0,1,1,0-2.53012H53.20139a1.26506,1.26506,0,0,1,0,2.53012Z"/><path class="cls-1" d="M53.20163,43.23171H29.73385a1.76465,1.76465,0,1,1,0-3.5293H53.20163a1.76465,1.76465,0,0,1,0,3.5293Zm-23.46778-2.5293a.76465.76465,0,1,0,0,1.5293H53.20163a.76465.76465,0,0,0,0-1.5293Z"/><path class="cls-1" d="M53.20139,57.39978H29.73354a1.26506,1.26506,0,0,1,0-2.53012H53.20139a1.26506,1.26506,0,0,1,0,2.53012Z"/><path class="cls-1" d="M53.20163,57.89968H29.73385a1.76514,1.76514,0,1,1,0-3.53028H53.20163a1.76514,1.76514,0,0,1,0,3.53028ZM29.73385,55.3694a.76514.76514,0,1,0,0,1.53028H53.20163a.76514.76514,0,0,0,0-1.53028Z"/></symbol>

<symbol id="bloc-table" viewBox="0 0 80 80"><defs><style>.cls-1{fill:#00a7c9;}</style></defs><path class="cls-1" d="M29.73271,51.532a7.13154,7.13154,0,1,1,7.13236-7.13237A7.13954,7.13954,0,0,1,29.73271,51.532Zm0-11.733A4.60145,4.60145,0,1,0,34.335,44.39966,4.60632,4.60632,0,0,0,29.73271,39.799Z"/><path class="cls-1" d="M29.73307,52.03223a7.63184,7.63184,0,1,1,7.63183-7.63282A7.64116,7.64116,0,0,1,29.73307,52.03223Zm0-14.26368a6.63184,6.63184,0,1,0,6.63183,6.63086A6.63944,6.63944,0,0,0,29.73307,37.76855Zm0,11.7334a5.10156,5.10156,0,1,1,5.10156-5.10254A5.10841,5.10841,0,0,1,29.73307,49.502Zm0-9.20312a4.10156,4.10156,0,1,0,4.10156,4.10058A4.10669,4.10669,0,0,0,29.73307,40.29883Z"/><path class="cls-1" d="M53.20033,63.26667A7.13237,7.13237,0,1,1,60.3327,56.1343,7.13954,7.13954,0,0,1,53.20033,63.26667Zm0-11.73464A4.60227,4.60227,0,1,0,57.8026,56.1343,4.60667,4.60667,0,0,0,53.20033,51.532Z"/><path class="cls-1" d="M53.19986,63.7666a7.63233,7.63233,0,1,1,7.63281-7.63183A7.64073,7.64073,0,0,1,53.19986,63.7666Zm0-14.26465a6.63233,6.63233,0,1,0,6.63281,6.63282A6.63965,6.63965,0,0,0,53.19986,49.502Zm0,11.73438a5.10205,5.10205,0,1,1,5.10254-5.10156A5.10675,5.10675,0,0,1,53.19986,61.23633Zm0-9.2041a4.10205,4.10205,0,1,0,4.10254,4.10254A4.1069,4.1069,0,0,0,53.19986,52.03223Z"/><path class="cls-1" d="M56.01539,52.23538a1.26511,1.26511,0,0,1-1.03608-1.98816L69.76291,29.0099a1.26483,1.26483,0,1,1,2.07547,1.44624L57.05478,51.69346A1.264,1.264,0,0,1,56.01539,52.23538Z"/><path class="cls-1" d="M56.01529,52.73535A1.76453,1.76453,0,0,1,54.569,49.96094L69.35318,28.72363a1.74637,1.74637,0,0,1,1.13477-.72754,1.7644,1.7644,0,0,1,1.76074,2.7461L57.46451,51.97949A1.767,1.767,0,0,1,56.01529,52.73535ZM70.8024,28.96777a.72969.72969,0,0,0-.13769.0127.754.754,0,0,0-.49024.31445L55.38932,50.5332a.764.764,0,0,0,.18945,1.06446.78281.78281,0,0,0,1.06543-.18946L71.42838,30.16992a.764.764,0,0,0-.18946-1.06445A.77044.77044,0,0,0,70.8024,28.96777Z"/><path class="cls-1" d="M47.94742,54.78854a1.25615,1.25615,0,0,1-.56664-.13507l-12.96509-6.513a1.26483,1.26483,0,1,1,1.13657-2.26l12.96509,6.513a1.265,1.265,0,0,1-.56993,2.395Z"/><path class="cls-1" d="M47.94693,55.28809a1.75335,1.75335,0,0,1-.793-.18946L34.19107,48.58789a1.76472,1.76472,0,0,1-.7832-2.37012,1.77451,1.77451,0,0,1,2.36914-.78418l12.96484,6.5127a1.76511,1.76511,0,0,1-.79492,3.3418ZM34.98014,46.24414a.76529.76529,0,0,0-.33985,1.44922l12.96485,6.51269a.77929.77929,0,0,0,1.02636-.33886.762.762,0,0,0-.33789-1.02637L35.32779,46.32813A.77182.77182,0,0,0,34.98014,46.24414Z"/><path class="cls-1" d="M6.26508,74.99966A1.26494,1.26494,0,0,1,5.27676,72.944l19.801-24.759a1.26566,1.26566,0,0,1,1.97664,1.5813l-19.801,24.759A1.26616,1.26616,0,0,1,6.26508,74.99966Z"/><path class="cls-1" d="M6.26529,75.5a1.76449,1.76449,0,0,1-1.3789-2.86719L24.68717,47.87207A1.7658,1.7658,0,0,1,27.445,50.07813L7.6442,74.83789A1.76509,1.76509,0,0,1,6.26529,75.5ZM26.068,48.21191a.77227.77227,0,0,0-.60059.28614L5.66764,73.25684A.76667.76667,0,0,0,5.78678,74.332a.784.784,0,0,0,1.07714-.12012L26.66373,49.4541a.76332.76332,0,0,0-.5957-1.24219Z"/><path class="cls-1" d="M6.26508,74.99966A1.26537,1.26537,0,0,1,5,73.73461V6.26539a1.265,1.265,0,1,1,2.53009,0V73.73461A1.26537,1.26537,0,0,1,6.26508,74.99966Z"/><path class="cls-1" d="M6.26529,75.5a1.76754,1.76754,0,0,1-1.76562-1.76562V6.26563a1.76514,1.76514,0,1,1,3.53027,0V73.73438A1.76733,1.76733,0,0,1,6.26529,75.5Zm0-70a.76687.76687,0,0,0-.76562.76563V73.73438a.76514.76514,0,1,0,1.53027,0V6.26563A.766.766,0,0,0,6.26529,5.5Z"/><path class="cls-1" d="M73.7343,74.99966H6.26508a1.26505,1.26505,0,0,1,0-2.5301H73.7343a1.26505,1.26505,0,0,1,0,2.5301Z"/><path class="cls-1" d="M73.734,75.5H6.26529a1.76514,1.76514,0,1,1,0-3.53027H73.734a1.76514,1.76514,0,1,1,0,3.53027ZM6.26529,72.96973a.76514.76514,0,1,0,0,1.53027H73.734a.76514.76514,0,1,0,0-1.53027Z"/><path class="cls-1" d="M73.73265,42.73105a1.26452,1.26452,0,0,1-1.22551-.95867L69.87986,31.26656,59.374,33.89384a1.26483,1.26483,0,0,1-.61276-2.45433l11.733-2.93366a1.26408,1.26408,0,0,1,1.53354.92079l2.93366,11.733a1.26434,1.26434,0,0,1-.92078,1.53354A1.23244,1.23244,0,0,1,73.73265,42.73105Z"/><path class="cls-1" d="M73.73307,43.23145a1.76024,1.76024,0,0,1-1.71094-1.33887L69.51627,31.87305,59.49478,34.37891a1.73342,1.73342,0,0,1-1.32421-.19434,1.764,1.764,0,0,1,.46972-3.23047l11.73242-2.93359a1.76444,1.76444,0,0,1,2.14063,1.28515l2.93359,11.73243a1.766,1.766,0,0,1-1.71386,2.19336ZM70.24283,30.66016l2.75,10.99121a.7866.7866,0,0,0,.92285.55761.76367.76367,0,0,0,.47461-.3496.75526.75526,0,0,0,.08594-.57813l-2.93359-11.7334a.76246.76246,0,0,0-.35254-.47363.75061.75061,0,0,0-.57227-.084L58.88248,31.9248a.76127.76127,0,0,0-.4707.34864.7528.7528,0,0,0-.08594.57715.76183.76183,0,0,0,.35547.47461.73629.73629,0,0,0,.5664.084Z"/></symbol>
<symbol id="bloc-acc" viewBox="0 0 80 80"><defs><style>.cls-1{fill:#00a7c9;}</style></defs><path class="cls-1" d="M64.9347,16.33036H53.20077a1.26506,1.26506,0,1,1,0-2.53012H64.9347a1.26506,1.26506,0,0,1,0,2.53012Z"/><path class="cls-1" d="M64.93457,16.83057H53.20068a1.76514,1.76514,0,0,1,0-3.53028H64.93457a1.76514,1.76514,0,1,1,0,3.53028ZM53.20068,14.30029a.76514.76514,0,0,0,0,1.53028H64.93457a.76514.76514,0,1,0,0-1.53028Z"/><path class="cls-1" d="M64.9347,28.06429a1.26538,1.26538,0,0,1-1.26506-1.26506V15.0653a1.26506,1.26506,0,1,1,2.53012,0V26.79923A1.26538,1.26538,0,0,1,64.9347,28.06429Z"/><path class="cls-1" d="M64.93457,28.56445a1.76744,1.76744,0,0,1-1.76514-1.76562V15.06543a1.76514,1.76514,0,0,1,3.53028,0v11.7334A1.76744,1.76744,0,0,1,64.93457,28.56445Zm0-14.26416a.766.766,0,0,0-.76514.76514v11.7334a.76514.76514,0,1,0,1.53028,0V15.06543A.766.766,0,0,0,64.93457,14.30029Z"/><path class="cls-1" d="M64.9347,66.19894a1.26539,1.26539,0,0,1-1.26506-1.26506V53.20077a1.26506,1.26506,0,1,1,2.53012,0V64.93388A1.26539,1.26539,0,0,1,64.9347,66.19894Z"/><path class="cls-1" d="M64.93457,66.69922a1.76744,1.76744,0,0,1-1.76514-1.76563V53.20117a1.76514,1.76514,0,1,1,3.53028,0V64.93359A1.76744,1.76744,0,0,1,64.93457,66.69922Zm0-14.26367a.76646.76646,0,0,0-.76514.76562V64.93359a.76514.76514,0,1,0,1.53028,0V53.20117A.76645.76645,0,0,0,64.93457,52.43555Z"/><path class="cls-1" d="M64.9347,66.19894H53.20077a1.26506,1.26506,0,0,1,0-2.53012H64.9347a1.26506,1.26506,0,0,1,0,2.53012Z"/><path class="cls-1" d="M64.93457,66.69922H53.20068a1.76514,1.76514,0,0,1,0-3.53027H64.93457a1.76514,1.76514,0,1,1,0,3.53027ZM53.20068,64.169a.76514.76514,0,0,0,0,1.53027H64.93457a.76514.76514,0,1,0,0-1.53027Z"/><path class="cls-1" d="M26.79923,66.19894H15.0653a1.26506,1.26506,0,1,1,0-2.53012H26.79923a1.26506,1.26506,0,0,1,0,2.53012Z"/><path class="cls-1" d="M26.79932,66.69922H15.06543a1.76514,1.76514,0,1,1,0-3.53027H26.79932a1.76514,1.76514,0,0,1,0,3.53027ZM15.06543,64.169a.76514.76514,0,1,0,0,1.53027H26.79932a.76514.76514,0,0,0,0-1.53027Z"/><path class="cls-1" d="M15.0653,66.19894a1.26539,1.26539,0,0,1-1.26506-1.26506V53.20077a1.26506,1.26506,0,1,1,2.53012,0V64.93388A1.26539,1.26539,0,0,1,15.0653,66.19894Z"/><path class="cls-1" d="M15.06543,66.69922a1.76744,1.76744,0,0,1-1.76514-1.76563V53.20117a1.76514,1.76514,0,1,1,3.53028,0V64.93359A1.76744,1.76744,0,0,1,15.06543,66.69922Zm0-14.26367a.76645.76645,0,0,0-.76514.76562V64.93359a.76514.76514,0,1,0,1.53028,0V53.20117A.76646.76646,0,0,0,15.06543,52.43555Z"/><path class="cls-1" d="M15.0653,28.06429a1.26538,1.26538,0,0,1-1.26506-1.26506V15.0653a1.26506,1.26506,0,1,1,2.53012,0V26.79923A1.26538,1.26538,0,0,1,15.0653,28.06429Z"/><path class="cls-1" d="M15.06543,28.56445a1.76744,1.76744,0,0,1-1.76514-1.76562V15.06543a1.76514,1.76514,0,1,1,3.53028,0v11.7334A1.76744,1.76744,0,0,1,15.06543,28.56445Zm0-14.26416a.766.766,0,0,0-.76514.76514v11.7334a.76514.76514,0,1,0,1.53028,0V15.06543A.766.766,0,0,0,15.06543,14.30029Z"/><path class="cls-1" d="M26.79923,16.33036H15.0653a1.26506,1.26506,0,0,1,0-2.53012H26.79923a1.26506,1.26506,0,0,1,0,2.53012Z"/><path class="cls-1" d="M26.79932,16.83057H15.06543a1.76514,1.76514,0,0,1,0-3.53028H26.79932a1.76514,1.76514,0,0,1,0,3.53028ZM15.06543,14.30029a.76514.76514,0,0,0,0,1.53028H26.79932a.76514.76514,0,0,0,0-1.53028Z"/><path class="cls-1" d="M64.9347,66.19894a1.26093,1.26093,0,0,1-.89444-.37063L46.439,48.22783A1.26492,1.26492,0,1,1,48.22783,46.439L65.82914,64.03944a1.26507,1.26507,0,0,1-.89444,2.1595Z"/><path class="cls-1" d="M64.93457,66.69922a1.75214,1.75214,0,0,1-1.248-.51758L46.08545,48.58105A1.765,1.765,0,1,1,48.58154,46.085L66.18262,63.68555a1.76563,1.76563,0,0,1-1.24805,3.01367ZM47.3335,46.56836a.76465.76465,0,0,0-.541,1.30566L64.39355,65.47461a.78347.78347,0,0,0,1.082,0,.76593.76593,0,0,0,0-1.082L47.87451,46.792A.76006.76006,0,0,0,47.3335,46.56836Z"/><path class="cls-1" d="M32.6666,33.93166a1.261,1.261,0,0,1-.89443-.37062L14.17086,15.95974a1.26493,1.26493,0,0,1,1.78888-1.78888L33.561,31.77217a1.26506,1.26506,0,0,1-.89444,2.15949Z"/><path class="cls-1" d="M32.6665,34.43164a1.75354,1.75354,0,0,1-1.248-.5166L13.81738,16.31348a1.765,1.765,0,0,1,2.4961-2.4961L33.91455,31.419a1.7644,1.7644,0,0,1-1.248,3.01269ZM15.06543,14.30078a.76465.76465,0,0,0-.541,1.30567L32.12549,33.208a.78345.78345,0,0,0,1.082,0,.76683.76683,0,0,0,0-1.082L15.60645,14.52441A.7643.7643,0,0,0,15.06543,14.30078Z"/><path class="cls-1" d="M15.0653,66.19894a1.26507,1.26507,0,0,1-.89444-2.1595L31.77217,46.439A1.26492,1.26492,0,1,1,33.561,48.22783L15.95974,65.82831A1.26093,1.26093,0,0,1,15.0653,66.19894Z"/><path class="cls-1" d="M15.06543,66.69922a1.76563,1.76563,0,0,1-1.248-3.01367L31.41846,46.085a1.765,1.765,0,1,1,2.49609,2.49609L16.31348,66.18164A1.75214,1.75214,0,0,1,15.06543,66.69922ZM32.6665,46.56836a.76006.76006,0,0,0-.541.22363L14.52441,64.39258a.76593.76593,0,0,0,0,1.082.78347.78347,0,0,0,1.082,0L33.20752,47.874a.76638.76638,0,0,0-.00049-1.082A.7581.7581,0,0,0,32.6665,46.56836Z"/><path class="cls-1" d="M47.3334,33.93166a1.26506,1.26506,0,0,1-.89444-2.15949l17.6013-17.60131a1.26493,1.26493,0,0,1,1.78888,1.78888L48.22783,33.561A1.261,1.261,0,0,1,47.3334,33.93166Z"/><path class="cls-1" d="M47.3335,34.43164a1.76465,1.76465,0,0,1-1.248-3.01269L63.68652,13.81738a1.765,1.765,0,1,1,2.4961,2.4961L48.58154,33.915A1.75354,1.75354,0,0,1,47.3335,34.43164ZM64.93457,14.30078a.7643.7643,0,0,0-.541.22363L46.79248,32.126a.76638.76638,0,0,0,.00049,1.082.78284.78284,0,0,0,1.08154,0L65.47559,15.60645a.76465.76465,0,0,0-.541-1.30567Z"/><path class="cls-1" d="M70.36145,75H9.63855A4.64327,4.64327,0,0,1,5,70.36145V9.63855A4.64327,4.64327,0,0,1,9.63855,5h60.7229A4.64327,4.64327,0,0,1,75,9.63855v60.7229A4.64327,4.64327,0,0,1,70.36145,75ZM9.63855,7.53012A2.11038,2.11038,0,0,0,7.53012,9.63855v60.7229a2.11038,2.11038,0,0,0,2.10843,2.10843h60.7229a2.11038,2.11038,0,0,0,2.10843-2.10843V9.63855a2.11038,2.11038,0,0,0-2.10843-2.10843Z"/><path class="cls-1" d="M70.36133,75.5H9.63867A5.14478,5.14478,0,0,1,4.5,70.36133V9.63867A5.14447,5.14447,0,0,1,9.63867,4.5H70.36133A5.14447,5.14447,0,0,1,75.5,9.63867V70.36133A5.14478,5.14478,0,0,1,70.36133,75.5ZM9.63867,5.5A4.14317,4.14317,0,0,0,5.5,9.63867V70.36133A4.14317,4.14317,0,0,0,9.63867,74.5H70.36133A4.14317,4.14317,0,0,0,74.5,70.36133V9.63867A4.14317,4.14317,0,0,0,70.36133,5.5ZM70.36133,72.96973H9.63867a2.61111,2.61111,0,0,1-2.6084-2.6084V9.63867a2.61111,2.61111,0,0,1,2.6084-2.6084H70.36133a2.61111,2.61111,0,0,1,2.6084,2.6084V70.36133A2.61111,2.61111,0,0,1,70.36133,72.96973ZM9.63867,8.03027a1.61042,1.61042,0,0,0-1.6084,1.6084V70.36133a1.61042,1.61042,0,0,0,1.6084,1.6084H70.36133a1.61042,1.61042,0,0,0,1.6084-1.6084V9.63867a1.61042,1.61042,0,0,0-1.6084-1.6084Z"/></symbol>
<symbol id="bloc-team" viewBox="0 0 80 80"><defs><style>.cls-1{fill:#00a7c9;}</style></defs><path class="cls-1" d="M40.43939,38.11473a7.69426,7.69426,0,0,1-7.56662-7.7997v-3.7343a7.5697,7.5697,0,1,1,15.13241,0V30.315A7.69411,7.69411,0,0,1,40.43939,38.11473Zm0-16.80353a5.16262,5.16262,0,0,0-5.03645,5.26953V30.315a5.04121,5.04121,0,1,0,10.07207,0v-3.7343A5.16248,5.16248,0,0,0,40.43939,21.3112Z"/><path class="cls-1" d="M40.43959,38.61475a8.19525,8.19525,0,0,1-8.06689-8.29981V26.58057a8.06945,8.06945,0,1,1,16.13232,0v3.73437A8.19466,8.19466,0,0,1,40.43959,38.61475Zm0-19.334a7.1943,7.1943,0,0,0-7.06689,7.29981v3.73437a7.0699,7.0699,0,1,0,14.13232,0V26.58057A7.19339,7.19339,0,0,0,40.43959,19.28076Zm0,16.80371A5.663,5.663,0,0,1,34.903,30.31494V26.58057a5.54086,5.54086,0,1,1,11.07227,0v3.73437A5.66251,5.66251,0,0,1,40.43959,36.08447Zm0-14.27343A4.66278,4.66278,0,0,0,35.903,26.58057v3.73437a4.54185,4.54185,0,1,0,9.07227,0V26.58057A4.6623,4.6623,0,0,0,40.43959,21.811Z"/><path class="cls-1" d="M54.97631,61.219H25.90164a3.38811,3.38811,0,0,1-2.55982-1.17119,3.33964,3.33964,0,0,1-.79068-2.65865,18.07112,18.07112,0,0,1,35.77566,0,3.33964,3.33964,0,0,1-.79067,2.65865A3.38813,3.38813,0,0,1,54.97631,61.219ZM40.43939,44.41544A15.6023,15.6023,0,0,0,25.0566,57.74493a.80983.80983,0,0,0,.196.64572.86079.86079,0,0,0,.649.29815H54.97631a.86079.86079,0,0,0,.649-.29815.80983.80983,0,0,0,.196-.64572A15.60209,15.60209,0,0,0,40.43939,44.41544Z"/><path class="cls-1" d="M54.97621,61.71924H25.90151a3.886,3.886,0,0,1-2.9375-1.34473,3.83956,3.83956,0,0,1-.90821-3.05566,18.57134,18.57134,0,0,1,36.76612,0,3.83853,3.83853,0,0,1-.90821,3.05664A3.88838,3.88838,0,0,1,54.97621,61.71924Zm-14.53662-19.334A17.6434,17.6434,0,0,0,23.046,57.45947a2.84,2.84,0,0,0,.67334,2.25977,2.88635,2.88635,0,0,0,2.18213,1h29.0747a2.888,2.888,0,0,0,2.18213-.999,2.83963,2.83963,0,0,0,.67334-2.26074A17.64229,17.64229,0,0,0,40.43959,42.38525ZM54.97621,59.189H25.90151a1.35854,1.35854,0,0,1-1.02637-.46972,1.31173,1.31173,0,0,1-.31348-1.04492,16.04057,16.04057,0,0,1,31.75489,0,1.30962,1.30962,0,0,1-.312,1.043A1.36086,1.36086,0,0,1,54.97621,59.189ZM40.43959,44.91553A15.0992,15.0992,0,0,0,25.5519,57.81494a.30517.30517,0,0,0,.08008.25.35778.35778,0,0,0,.26953.124h29.0747a.36017.36017,0,0,0,.27149-.126.30389.30389,0,0,0,.07861-.248A15.099,15.099,0,0,0,40.43959,44.91553Z"/><path class="cls-1" d="M65.12416,38.3643H58.34822a4.6576,4.6576,0,0,1-4.65264-4.65182,1.26541,1.26541,0,0,1,1.26508-1.26508.99494.99494,0,0,0,.99329-.99329V29.19574a5.78224,5.78224,0,1,1,11.56447,0v2.25837a.99511.99511,0,0,0,.99412.99329,1.26541,1.26541,0,0,1,1.26508,1.26508A4.6583,4.6583,0,0,1,65.12416,38.3643ZM56.444,34.64976a2.12387,2.12387,0,0,0,1.90421,1.18437h6.77594a2.12389,2.12389,0,0,0,1.90421-1.18437,3.52766,3.52766,0,0,1-2.04011-3.19565V29.19574a3.25207,3.25207,0,1,0-6.50414,0v2.25837A3.52808,3.52808,0,0,1,56.444,34.64976Z"/><path class="cls-1" d="M65.12416,38.86475H58.34828a5.15854,5.15854,0,0,1-5.15283-5.15235,1.76724,1.76724,0,0,1,1.76514-1.76465.494.494,0,0,0,.49316-.49316V29.1958a6.28223,6.28223,0,1,1,12.56446,0v2.25879a.49451.49451,0,0,0,.49414.49316,1.76723,1.76723,0,0,1,1.76513,1.76465A5.15864,5.15864,0,0,1,65.12416,38.86475ZM61.73647,23.9126a5.28887,5.28887,0,0,0-5.28272,5.2832v2.25879a1.495,1.495,0,0,1-1.49316,1.49316.76562.76562,0,0,0-.76514.76465,4.15692,4.15692,0,0,0,4.15283,4.15235h6.77588a4.15733,4.15733,0,0,0,4.15332-4.15235.76562.76562,0,0,0-.76513-.76465,1.49549,1.49549,0,0,1-1.49414-1.49316V29.1958A5.28835,5.28835,0,0,0,61.73647,23.9126Zm3.38769,12.42187H58.34828a2.60948,2.60948,0,0,1-2.35253-1.46289l-.22657-.459.46338-.21582A3.03837,3.03837,0,0,0,57.984,31.45459V29.1958a3.7522,3.7522,0,1,1,7.50439,0v2.25879a3.03768,3.03768,0,0,0,1.751,2.74219l.46386.21582-.22656.459A2.60949,2.60949,0,0,1,65.12416,36.33447Zm-7.96191-1.51465a1.61058,1.61058,0,0,0,1.186.51465h6.77588a1.61418,1.61418,0,0,0,1.186-.51367,4.042,4.042,0,0,1-1.82178-3.36621V29.1958a2.7522,2.7522,0,1,0-5.50439,0v2.25879A4.04274,4.04274,0,0,1,57.16225,34.81982Z"/><path class="cls-1" d="M71.61841,56.58775h-10.292a1.26508,1.26508,0,1,1,0-2.53016h10.292a.89046.89046,0,0,0,.68114-.32616.6804.6804,0,0,0,.15731-.57489,11.36465,11.36465,0,0,0-11.13042-9.1702,11.24109,11.24109,0,0,0-6.645,2.153,1.26424,1.26424,0,1,1-1.48581-2.04588,13.73973,13.73973,0,0,1,8.1308-2.63724,13.89742,13.89742,0,0,1,13.612,11.2095,3.20957,3.20957,0,0,1-.682,2.67018A3.40035,3.40035,0,0,1,71.61841,56.58775Z"/><path class="cls-1" d="M71.6183,57.0874h-10.292a1.76514,1.76514,0,0,1,0-3.53027h10.292a.39017.39017,0,0,0,.29346-.1416.178.178,0,0,0,.05469-.16016,10.86589,10.86589,0,0,0-10.64014-8.76855,10.74536,10.74536,0,0,0-6.35156,2.05664A1.76384,1.76384,0,1,1,52.902,43.689a14.23146,14.23146,0,0,1,8.42431-2.73242,14.398,14.398,0,0,1,14.103,11.61328,3.70691,3.70691,0,0,1-.78613,3.083A3.90124,3.90124,0,0,1,71.6183,57.0874Zm-10.292-2.53027a.76514.76514,0,0,0,0,1.53027h10.292a2.90135,2.90135,0,0,0,2.25147-1.06933,2.71089,2.71089,0,0,0,.57861-2.25489A13.39656,13.39656,0,0,0,61.32631,41.95654a13.24529,13.24529,0,0,0-7.83691,2.541.7645.7645,0,0,0,.3291,1.374.75163.75163,0,0,0,.56836-.13672,11.74078,11.74078,0,0,1,6.93945-2.248A11.86738,11.86738,0,0,1,72.94741,53.061a1.17023,1.17023,0,0,1-.26319.98925,1.3889,1.3889,0,0,1-1.06592.50684Z"/><path class="cls-1" d="M19.10923,38.91981a6.13694,6.13694,0,0,1-6.19858-5.2926l-.37887-3.21542a5.72146,5.72146,0,0,1,1.44381-4.52333,6.35,6.35,0,0,1,4.75477-2.10188h.75691A6.35,6.35,0,0,1,24.242,25.88846a5.72146,5.72146,0,0,1,1.44381,4.52333L25.307,33.62721A6.1349,6.1349,0,0,1,19.10923,38.91981Zm-.37887-12.60306a3.82276,3.82276,0,0,0-2.86455,1.2519,3.23126,3.23126,0,0,0-.822,2.54664l.37887,3.21542a3.61067,3.61067,0,0,0,3.68653,3.05893,3.60777,3.60777,0,0,0,3.68488-3.05893l.37969-3.21542a3.23125,3.23125,0,0,0-.822-2.54664,3.8228,3.8228,0,0,0-2.86456-1.2519Z"/><path class="cls-1" d="M19.109,39.41992a6.63643,6.63643,0,0,1-6.69483-5.73437l-.3789-3.21485a6.21394,6.21394,0,0,1,1.56689-4.91406,6.84543,6.84543,0,0,1,5.12793-2.27051h.75732a6.84726,6.84726,0,0,1,5.12842,2.27051,6.2154,6.2154,0,0,1,1.56641,4.91406l-.37891,3.21485A6.635,6.635,0,0,1,19.109,39.41992Zm-.37891-15.13379a5.84686,5.84686,0,0,0-4.38037,1.93457,5.2276,5.2276,0,0,0-1.32129,4.13282l.37891,3.21484A5.63722,5.63722,0,0,0,19.109,38.41992a5.63566,5.63566,0,0,0,5.70117-4.85156l.3789-3.21484a5.229,5.229,0,0,0-1.3208-4.13282,5.84866,5.84866,0,0,0-4.38086-1.93457ZM19.109,36.88965a4.111,4.111,0,0,1-4.18311-3.5L14.547,30.17383a3.73132,3.73132,0,0,1,.94483-2.9375,4.32858,4.32858,0,0,1,3.23828-1.41992h.75732a4.32784,4.32784,0,0,1,3.2378,1.41894,3.72686,3.72686,0,0,1,.94531,2.9375l-.37988,3.2168A4.10662,4.10662,0,0,1,19.109,36.88965Zm-.37891-10.07324a3.3264,3.3264,0,0,0-2.49121,1.085,2.74073,2.74073,0,0,0-.69873,2.15625l.37891,3.21484A3.1123,3.1123,0,0,0,19.109,35.88965a3.109,3.109,0,0,0,3.18847-2.61719l.37989-3.21582a2.73811,2.73811,0,0,0-.69922-2.15625,3.32568,3.32568,0,0,0-2.49073-1.084Z"/><path class="cls-1" d="M18.67271,56.21422H8.38073a3.40038,3.40038,0,0,1-2.63806-1.25191,3.21483,3.21483,0,0,1-.68114-2.67677,13.89652,13.89652,0,0,1,13.61118-11.2029,13.73847,13.73847,0,0,1,8.13162,2.63724,1.26473,1.26473,0,1,1-1.48746,2.04587,11.235,11.235,0,0,0-6.64416-2.15295,11.36374,11.36374,0,0,0-11.1296,9.16362.68556.68556,0,0,0,.15648.58148.89045.89045,0,0,0,.68114.32615h10.292a1.26509,1.26509,0,0,1,0,2.53017Z"/><path class="cls-1" d="M18.6725,56.71387H8.38051A3.90025,3.90025,0,0,1,5.3561,55.2793a3.7141,3.7141,0,0,1-.78467-3.0918A14.39343,14.39343,0,0,1,18.6725,40.583a14.23035,14.23035,0,0,1,8.42578,2.73242,1.7635,1.7635,0,0,1,.39014,2.46387,1.77044,1.77044,0,0,1-2.46435.3916,10.73971,10.73971,0,0,0-6.35157-2.05762A10.86277,10.86277,0,0,0,8.03383,52.87207a.18055.18055,0,0,0,.05029.166.39263.39263,0,0,0,.29639.1455h10.292a1.76514,1.76514,0,1,1,0,3.53028Zm0-15.13086A13.392,13.392,0,0,0,5.55239,52.38086a2.71775,2.71775,0,0,0,.57666,2.26367,2.9028,2.9028,0,0,0,2.25146,1.06934h10.292a.76514.76514,0,1,0,0-1.53028H8.38051a1.394,1.394,0,0,1-1.06836-.50976,1.17891,1.17891,0,0,1-.25976-.99414A11.865,11.865,0,0,1,18.6725,43.11328a11.73572,11.73572,0,0,1,6.93848,2.248.76491.76491,0,0,0,1.20508-.73828.75869.75869,0,0,0-.30567-.499A13.24385,13.24385,0,0,0,18.6725,41.583Z"/></symbol>
<symbol id="bloc-grid" viewBox="0 0 80 80"><defs><style>.cls-1{fill:#00a7c9;}</style></defs><path class="cls-1" d="M24.37793,26.04688H6a1.74962,1.74962,0,0,1-1.75-1.75V5.919A1.74961,1.74961,0,0,1,6,4.169H24.37793a1.74961,1.74961,0,0,1,1.75,1.75V24.29688A1.74962,1.74962,0,0,1,24.37793,26.04688ZM7.75,22.54688H22.62793V7.669H7.75Z"/><path class="cls-1" d="M49.18945,26.04688H30.81055a1.74962,1.74962,0,0,1-1.75-1.75V5.919a1.74961,1.74961,0,0,1,1.75-1.75h18.3789a1.74961,1.74961,0,0,1,1.75,1.75V24.29688A1.74962,1.74962,0,0,1,49.18945,26.04688Zm-16.6289-3.5h14.8789V7.669H32.56055Z"/><path class="cls-1" d="M74,26.04688H55.62207a1.74962,1.74962,0,0,1-1.75-1.75V5.919a1.74961,1.74961,0,0,1,1.75-1.75H74a1.74961,1.74961,0,0,1,1.75,1.75V24.29688A1.74962,1.74962,0,0,1,74,26.04688Zm-16.62793-3.5H72.25V7.669H57.37207Z"/><path class="cls-1" d="M24.37793,49.93945H6a1.74961,1.74961,0,0,1-1.75-1.75V29.81055a1.74961,1.74961,0,0,1,1.75-1.75H24.37793a1.74961,1.74961,0,0,1,1.75,1.75v18.3789A1.74961,1.74961,0,0,1,24.37793,49.93945ZM7.75,46.43945H22.62793V31.56055H7.75Z"/><path class="cls-1" d="M49.18945,49.93945H30.81055a1.74961,1.74961,0,0,1-1.75-1.75V29.81055a1.74961,1.74961,0,0,1,1.75-1.75h18.3789a1.74961,1.74961,0,0,1,1.75,1.75v18.3789A1.74961,1.74961,0,0,1,49.18945,49.93945Zm-16.6289-3.5h14.8789V31.56055H32.56055Z"/><path class="cls-1" d="M74,49.93945H55.62207a1.74961,1.74961,0,0,1-1.75-1.75V29.81055a1.74961,1.74961,0,0,1,1.75-1.75H74a1.74961,1.74961,0,0,1,1.75,1.75v18.3789A1.74961,1.74961,0,0,1,74,49.93945Zm-16.62793-3.5H72.25V31.56055H57.37207Z"/><path class="cls-1" d="M24.37793,73.83105H6a1.74961,1.74961,0,0,1-1.75-1.75V53.70313a1.74961,1.74961,0,0,1,1.75-1.75H24.37793a1.74961,1.74961,0,0,1,1.75,1.75V72.08105A1.74961,1.74961,0,0,1,24.37793,73.83105ZM7.75,70.33105H22.62793V55.45313H7.75Z"/><path class="cls-1" d="M49.18945,73.83105H30.81055a1.74961,1.74961,0,0,1-1.75-1.75V53.70313a1.74961,1.74961,0,0,1,1.75-1.75h18.3789a1.74961,1.74961,0,0,1,1.75,1.75V72.08105A1.74961,1.74961,0,0,1,49.18945,73.83105Zm-16.6289-3.5h14.8789V55.45313H32.56055Z"/><path class="cls-1" d="M74,73.83105H55.62207a1.74961,1.74961,0,0,1-1.75-1.75V53.70313a1.74961,1.74961,0,0,1,1.75-1.75H74a1.74961,1.74961,0,0,1,1.75,1.75V72.08105A1.74961,1.74961,0,0,1,74,73.83105Zm-16.62793-3.5H72.25V55.45313H57.37207Z"/></symbol>
<symbol id="bloc-video" viewBox="0 0 80 80"><defs><style>.cls-1{fill:#00a7c9;}</style></defs><path class="cls-1" d="M32.6666,54.46624a1.26675,1.26675,0,0,1-1.26506-1.26506V26.79882a1.26546,1.26546,0,0,1,1.96678-1.05257L50.9688,37.48017a1.26524,1.26524,0,0,1,.10871,2.02443L33.477,54.173A1.2703,1.2703,0,0,1,32.6666,54.46624Zm1.26506-25.30367V50.49975l14.2237-11.85417Z"/><path class="cls-1" d="M32.667,54.96606a1.74384,1.74384,0,0,1-.751-.168,1.7661,1.7661,0,0,1-1.01465-1.59668V26.79907a1.76566,1.76566,0,0,1,2.74316-1.46972L51.24609,37.06372a1.76561,1.76561,0,0,1,.15039,2.8252l-17.5996,14.668A1.77256,1.77256,0,0,1,32.667,54.96606Zm-.001-28.93261a.75434.75434,0,0,0-.3584.09082.76278.76278,0,0,0-.40625.6748V53.20142a.76478.76478,0,0,0,.43945.6914.773.773,0,0,0,.81641-.10449l17.59961-14.668a.76508.76508,0,0,0-.06543-1.22461L33.09082,26.16235A.77157.77157,0,0,0,32.666,26.03345Zm.76562,25.5332V28.22778L48.99023,38.60083Zm1-21.46973v19.335L47.32031,38.69067Z"/><path class="cls-1" d="M72.04819,66.19935H7.95181A2.95539,2.95539,0,0,1,5,63.24754V16.75246a2.95539,2.95539,0,0,1,2.95181-2.95181H72.04819A2.95539,2.95539,0,0,1,75,16.75246V63.24754A2.95539,2.95539,0,0,1,72.04819,66.19935ZM7.95181,16.33077a.4225.4225,0,0,0-.42169.42169V63.24754a.4225.4225,0,0,0,.42169.42169H72.04819a.4225.4225,0,0,0,.42169-.42169V16.75246a.4225.4225,0,0,0-.42169-.42169Z"/><path class="cls-1" d="M72.04785,66.69946H7.95215A3.45632,3.45632,0,0,1,4.5,63.24731V16.75269a3.45632,3.45632,0,0,1,3.45215-3.45215h64.0957A3.45632,3.45632,0,0,1,75.5,16.75269V63.24731A3.45632,3.45632,0,0,1,72.04785,66.69946ZM7.95215,14.30054A2.4547,2.4547,0,0,0,5.5,16.75269V63.24731a2.45439,2.45439,0,0,0,2.45215,2.45215h64.0957A2.45439,2.45439,0,0,0,74.5,63.24731V16.75269a2.4547,2.4547,0,0,0-2.45215-2.45215Zm64.0957,49.86865H7.95215a.92233.92233,0,0,1-.92188-.92188V16.75269a.92264.92264,0,0,1,.92188-.92188h64.0957a.92264.92264,0,0,1,.92188.92188V63.24731A.92233.92233,0,0,1,72.04785,64.16919Zm-64.01758-1H71.96973V16.83081H8.03027Z"/><path class="cls-1" d="M17.99981,28.06388H15.06612a1.26539,1.26539,0,0,1-1.26506-1.26506V23.866a1.26539,1.26539,0,0,1,1.26506-1.26506h2.93369A1.26538,1.26538,0,0,1,19.26487,23.866v2.93287A1.26538,1.26538,0,0,1,17.99981,28.06388Zm-1.66863-2.53012h.40357V25.131h-.40357Z"/><path class="cls-1" d="M18,28.56372H15.06641a1.76733,1.76733,0,0,1-1.76563-1.76465V23.86548a1.76733,1.76733,0,0,1,1.76563-1.76465H18a1.76713,1.76713,0,0,1,1.76465,1.76465v2.93359A1.76713,1.76713,0,0,1,18,28.56372Zm-2.93359-5.46289a.766.766,0,0,0-.76563.76465v2.93359a.766.766,0,0,0,.76563.76465H18a.76519.76519,0,0,0,.76465-.76465V23.86548A.76519.76519,0,0,0,18,23.10083Zm2.168,2.93262H15.83105V24.6311h1.40333Z"/><path class="cls-1" d="M17.99981,42.73149H15.06612a1.26539,1.26539,0,0,1-1.26506-1.26506V38.53274a1.2654,1.2654,0,0,1,1.26506-1.26506h2.93369a1.26539,1.26539,0,0,1,1.26506,1.26506v2.93369A1.26538,1.26538,0,0,1,17.99981,42.73149Zm-1.66863-2.53012h.40357V39.7978h-.40357Z"/><path class="cls-1" d="M18,43.23169H15.06641a1.76754,1.76754,0,0,1-1.76563-1.76563V38.53247a1.76733,1.76733,0,0,1,1.76563-1.76465H18a1.76713,1.76713,0,0,1,1.76465,1.76465v2.93359A1.76733,1.76733,0,0,1,18,43.23169Zm-2.93359-5.46387a.766.766,0,0,0-.76563.76465v2.93359a.76687.76687,0,0,0,.76563.76563H18a.766.766,0,0,0,.76465-.76563V38.53247A.7652.7652,0,0,0,18,37.76782Zm2.168,2.9336H15.83105V39.2981h1.40333Z"/><path class="cls-1" d="M17.99981,57.39828H15.06612a1.26539,1.26539,0,0,1-1.26506-1.26506v-2.932a1.26539,1.26539,0,0,1,1.26506-1.26506h2.93369a1.26538,1.26538,0,0,1,1.26506,1.26506v2.932A1.26538,1.26538,0,0,1,17.99981,57.39828Zm-1.66863-2.53012h.40357v-.40192h-.40357Z"/><path class="cls-1" d="M18,57.89868H15.06641a1.76754,1.76754,0,0,1-1.76563-1.76562V53.20142a1.76754,1.76754,0,0,1,1.76563-1.76563H18a1.76733,1.76733,0,0,1,1.76465,1.76563v2.93164A1.76733,1.76733,0,0,1,18,57.89868Zm-2.93359-5.46289a.76687.76687,0,0,0-.76563.76563v2.93164a.76687.76687,0,0,0,.76563.76562H18a.766.766,0,0,0,.76465-.76562V53.20142A.766.766,0,0,0,18,52.43579Zm2.168,2.93262H15.83105V53.96606h1.40333Z"/><path class="cls-1" d="M64.93552,28.06388H62.00184a1.26538,1.26538,0,0,1-1.26506-1.26506V23.866a1.26538,1.26538,0,0,1,1.26506-1.26506h2.93368A1.26538,1.26538,0,0,1,66.20058,23.866v2.93287A1.26538,1.26538,0,0,1,64.93552,28.06388ZM63.2669,25.53376h.40356V25.131H63.2669Z"/><path class="cls-1" d="M64.93555,28.56372H62.002a1.76733,1.76733,0,0,1-1.76562-1.76465V23.86548A1.76733,1.76733,0,0,1,62.002,22.10083h2.9336a1.76713,1.76713,0,0,1,1.76465,1.76465v2.93359A1.76713,1.76713,0,0,1,64.93555,28.56372ZM62.002,23.10083a.766.766,0,0,0-.76562.76465v2.93359a.766.766,0,0,0,.76562.76465h2.9336a.7652.7652,0,0,0,.76465-.76465V23.86548a.7652.7652,0,0,0-.76465-.76465Zm2.169,2.93262H62.7666V24.6311h1.4043Z"/><path class="cls-1" d="M64.93552,42.73149H62.00184a1.26538,1.26538,0,0,1-1.26506-1.26506V38.53274a1.26539,1.26539,0,0,1,1.26506-1.26506h2.93368a1.26539,1.26539,0,0,1,1.26506,1.26506v2.93369A1.26538,1.26538,0,0,1,64.93552,42.73149ZM63.2669,40.20137h.40356V39.7978H63.2669Z"/><path class="cls-1" d="M64.93555,43.23169H62.002a1.76754,1.76754,0,0,1-1.76562-1.76563V38.53247A1.76733,1.76733,0,0,1,62.002,36.76782h2.9336a1.76713,1.76713,0,0,1,1.76465,1.76465v2.93359A1.76734,1.76734,0,0,1,64.93555,43.23169ZM62.002,37.76782a.766.766,0,0,0-.76562.76465v2.93359a.76687.76687,0,0,0,.76562.76563h2.9336a.766.766,0,0,0,.76465-.76563V38.53247a.76521.76521,0,0,0-.76465-.76465Zm2.169,2.9336H62.7666V39.2981h1.4043Z"/><path class="cls-1" d="M64.93552,57.39828H62.00184a1.26538,1.26538,0,0,1-1.26506-1.26506v-2.932a1.26538,1.26538,0,0,1,1.26506-1.26506h2.93368a1.26538,1.26538,0,0,1,1.26506,1.26506v2.932A1.26538,1.26538,0,0,1,64.93552,57.39828ZM63.2669,54.86816h.40356v-.40192H63.2669Z"/><path class="cls-1" d="M64.93555,57.89868H62.002a1.76754,1.76754,0,0,1-1.76562-1.76562V53.20142A1.76754,1.76754,0,0,1,62.002,51.43579h2.9336a1.76734,1.76734,0,0,1,1.76465,1.76563v2.93164A1.76734,1.76734,0,0,1,64.93555,57.89868ZM62.002,52.43579a.76687.76687,0,0,0-.76562.76563v2.93164a.76687.76687,0,0,0,.76562.76562h2.9336a.766.766,0,0,0,.76465-.76562V53.20142a.766.766,0,0,0-.76465-.76563Zm2.169,2.93262H62.7666V53.96606h1.4043Z"/></symbol>
<symbol id="bloc-gallery" viewBox="0 0 80 80"><defs><style>.cls-1{fill:#00a7c9;}</style></defs><g id="slider"><path class="cls-1" d="M64.93388,58.86554H15.0653a1.26538,1.26538,0,0,1-1.26506-1.26506v-35.201a1.26538,1.26538,0,0,1,1.26506-1.26506H64.93388a1.26539,1.26539,0,0,1,1.26506,1.26506v35.201A1.26539,1.26539,0,0,1,64.93388,58.86554ZM16.33036,56.33542H63.66882V23.66458H16.33036Z"/><path class="cls-1" d="M64.93359,59.36523H15.06543a1.76734,1.76734,0,0,1-1.76563-1.76464V22.39941a1.76734,1.76734,0,0,1,1.76563-1.76464H64.93359a1.76733,1.76733,0,0,1,1.76563,1.76464V57.60059A1.76733,1.76733,0,0,1,64.93359,59.36523ZM15.06543,21.63477a.766.766,0,0,0-.76563.76464V57.60059a.766.766,0,0,0,.76563.76464H64.93359a.766.766,0,0,0,.76563-.76464V22.39941a.766.766,0,0,0-.76563-.76464ZM64.169,56.835H15.83008V23.165H64.169Zm-47.33887-1H63.169V24.165H16.83008Z"/><path class="cls-1" d="M56.13446,35.39768a4.19792,4.19792,0,1,1,4.19875-4.19874A4.20249,4.20249,0,0,1,56.13446,35.39768Zm0-5.86572a1.6678,1.6678,0,1,0,1.66863,1.667A1.66926,1.66926,0,0,0,56.13446,29.532Z"/><path class="cls-1" d="M56.13477,35.89746A4.69776,4.69776,0,1,1,60.833,31.19922,4.70414,4.70414,0,0,1,56.13477,35.89746Zm0-8.39551A3.69776,3.69776,0,1,0,59.833,31.19922,3.702,3.702,0,0,0,56.13477,27.502Zm0,5.86524a2.16748,2.16748,0,1,1,2.168-2.168A2.17078,2.17078,0,0,1,56.13477,33.36719Zm0-3.335a1.16748,1.16748,0,1,0,1.168,1.167A1.16926,1.16926,0,0,0,56.13477,30.03223Z"/><path class="cls-1" d="M15.06448,47.13244a1.265,1.265,0,0,1-.98668-2.05573L25.81172,30.40827a1.265,1.265,0,1,1,1.975,1.58133L16.0528,46.658A1.26377,1.26377,0,0,1,15.06448,47.13244Z"/><path class="cls-1" d="M15.06445,47.63281a1.774,1.774,0,0,1-1.10156-.38672,1.76625,1.76625,0,0,1-.27539-2.48144l11.7334-14.669a1.76542,1.76542,0,0,1,2.75683,2.20606L16.44336,46.9707A1.75645,1.75645,0,0,1,15.06445,47.63281ZM26.79883,30.43457a.76161.76161,0,0,0-.59668.28613l-11.7334,14.669a.76491.76491,0,0,0,.11914,1.07519.77928.77928,0,0,0,1.07422-.11914L27.39648,31.67676a.76458.76458,0,0,0-.59765-1.24219Z"/><path class="cls-1" d="M50.26708,58.86554a1.26227,1.26227,0,0,1-.9455-.425L25.85373,32.039a1.26479,1.26479,0,0,1,1.891-1.68016L51.21258,56.7604a1.26508,1.26508,0,0,1-.9455,2.10514Z"/><path class="cls-1" d="M50.2666,59.36523a1.76716,1.76716,0,0,1-1.31933-.59277L25.47949,32.37109a1.76532,1.76532,0,0,1,2.63965-2.34472L51.58691,56.42871a1.76471,1.76471,0,0,1-1.32031,2.93652ZM26.79785,30.43359a.75441.75441,0,0,0-.50586.19336.765.765,0,0,0-.06445,1.08008L49.69531,58.1084a.788.788,0,0,0,1.08008.06348.76555.76555,0,0,0,.06348-1.07911L27.37109,30.69043a.76.76,0,0,0-.52832-.25586C26.82715,30.43359,26.8125,30.43359,26.79785,30.43359Z"/><path class="cls-1" d="M38.53316,44.19875a1.26506,1.26506,0,0,1-.89444-2.1595l5.86737-5.86737a1.26522,1.26522,0,0,1,1.7897,1.78887l-5.8682,5.86738A1.261,1.261,0,0,1,38.53316,44.19875Z"/><path class="cls-1" d="M38.5332,44.69922a1.76563,1.76563,0,0,1-1.248-3.01367l5.86718-5.86719a1.76535,1.76535,0,0,1,2.498,2.49512l-5.86914,5.86816A1.75379,1.75379,0,0,1,38.5332,44.69922Zm5.86719-8.39746a.76137.76137,0,0,0-.541.22363l-5.86719,5.86719a.76621.76621,0,0,0,0,1.082.78345.78345,0,0,0,1.082,0l5.86816-5.86719a.76464.76464,0,0,0-.542-1.30566Z"/><path class="cls-1" d="M62.00184,58.86554a1.2629,1.2629,0,0,1-.96033-.44145L43.44021,37.88992a1.26544,1.26544,0,0,1,1.92147-1.64721L62.96216,56.77687a1.26505,1.26505,0,0,1-.96032,2.08867Z"/><path class="cls-1" d="M62.002,59.36523a1.76033,1.76033,0,0,1-1.33984-.61621L43.06055,38.21484A1.7651,1.7651,0,1,1,45.74219,35.919L63.3418,56.45215A1.76464,1.76464,0,0,1,62.002,59.36523ZM44.40137,36.30078a.76461.76461,0,0,0-.499.18555.76363.76363,0,0,0-.082,1.07812L61.42188,58.09863a.78635.78635,0,0,0,1.07812.082.7636.7636,0,0,0,.082-1.07812L44.98145,36.56836a.75217.75217,0,0,0-.51954-.26465C44.44141,36.30176,44.4209,36.30078,44.40137,36.30078Z"/><path class="cls-1" d="M73.73494,55.93185H70.80125a1.26506,1.26506,0,1,1,0-2.53012h1.66863V26.59827H70.80125a1.26506,1.26506,0,1,1,0-2.53012h2.93369A1.26538,1.26538,0,0,1,75,25.33321V54.66679A1.26538,1.26538,0,0,1,73.73494,55.93185Z"/><path class="cls-1" d="M73.73535,56.43164H70.80078a1.76514,1.76514,0,0,1,0-3.53027h1.16895V27.09863H70.80078a1.76514,1.76514,0,0,1,0-3.53027h2.93457A1.76713,1.76713,0,0,1,75.5,25.333V54.667A1.76713,1.76713,0,0,1,73.73535,56.43164Zm-2.93457-2.53027a.76514.76514,0,0,0,0,1.53027h2.93457A.76519.76519,0,0,0,74.5,54.667V25.333a.76519.76519,0,0,0-.76465-.76465H70.80078a.76514.76514,0,0,0,0,1.53027h2.16895V53.90137Z"/><path class="cls-1" d="M9.19875,55.93185H6.26506A1.26538,1.26538,0,0,1,5,54.66679V25.33321a1.26538,1.26538,0,0,1,1.26506-1.26506H9.19875a1.26506,1.26506,0,0,1,0,2.53012H7.53012V53.40173H9.19875a1.26506,1.26506,0,1,1,0,2.53012Z"/><path class="cls-1" d="M9.19873,56.43164H6.26514A1.76723,1.76723,0,0,1,4.5,54.667V25.333a1.76723,1.76723,0,0,1,1.76514-1.76465H9.19873a1.76514,1.76514,0,1,1,0,3.53027H8.03027V52.90137H9.19873a1.76514,1.76514,0,1,1,0,3.53027ZM6.26514,24.56836A.76561.76561,0,0,0,5.5,25.333V54.667a.76561.76561,0,0,0,.76514.76465H9.19873a.76514.76514,0,1,0,0-1.53027H7.03027V26.09863H9.19873a.76514.76514,0,1,0,0-1.53027Z"/></g></symbol>
<symbol id="paratomic" viewBox="0 0 172.9 172.9"><defs><style>.cls-1{fill:#00a7ca;}.cls-2{fill:#b6dde0;}</style></defs><title>paratomic</title><g id="Layer_2" data-name="Layer 2"><g id="Layer_1-2" data-name="Layer 1"><g id="Layer_1-2-2" data-name="Layer 1-2"><path class="cls-1" d="M86.4,0a86.45,86.45,0,1,0,86.5,86.4A86.44,86.44,0,0,0,86.4,0m0,159.8a73.3,73.3,0,1,1,73.3-73.3h0a73.41,73.41,0,0,1-73.3,73.3"/><path class="cls-2" d="M86.4,136c-4.3,0-8.2-3.3-11.5-8.8-1.7.5-3.3,1-4.9,1.4,4.4,7.8,10.1,12.5,16.4,12.5s11.8-4.4,16.1-11.8c-1.6-.4-3.2-.9-4.9-1.4C94.4,132.9,90.5,136,86.4,136Z"/><path class="cls-2" d="M63.6,110.5a74.3,74.3,0,0,0,2.4,8.8c1.6-.3,3.2-.8,4.9-1.2-.4-1.1-.7-2.3-1.1-3.4C67.7,113.3,65.6,111.9,63.6,110.5Z"/><path class="cls-2" d="M101.8,118.7c1.6.5,3.3.9,4.8,1.3a66.43,66.43,0,0,0,2.7-9.8c-2,1.4-4,2.7-6.1,4C102.8,115.8,102.3,117.3,101.8,118.7Z"/><path class="cls-2" d="M78.3,67.9l-.6.3v3.7h3.1Z"/><path class="cls-2" d="M97.4,69.8c-.6-.3-1.2-.7-1.8-1l.9,1.5A3.45,3.45,0,0,0,97.4,69.8Z"/><path class="cls-2" d="M94.4,66.7c2.3-.9,4.6-1.6,6.8-2.3a8.49,8.49,0,0,0,.3-2.3,11.86,11.86,0,0,0-.5-3.4c-3.1.9-6.2,1.9-9.4,3.1Z"/><path class="cls-2" d="M126.3,92.7c1.2-1.4,2.4-2.8,3.5-4.2,7.5-9.8,9.6-18.6,6-24.8-3-5.2-9.5-7.8-18.6-7.7a25.14,25.14,0,0,1,.6,5.6h.2c6.6,0,11.2,1.7,13,4.8,2.4,4.1.3,10.9-5.6,18.7-.9,1.2-1.9,2.3-2.9,3.5a111.86,111.86,0,0,0-11.4-9.9,27.34,27.34,0,0,1-4.5,3.6,99.07,99.07,0,0,1,12.1,10.4,117.84,117.84,0,0,1-22.4,16.7c-3.5,2-7,3.8-10.4,5.4-3.2-1.5-6.4-3.3-9.6-5.2A113.36,113.36,0,0,1,53.8,92.2a85.65,85.65,0,0,1,7.7-6.8v-7A111.94,111.94,0,0,0,50,88.1C42.3,79,39.5,70.8,42.2,66.3c1.8-3,6.3-4.6,12.6-4.6a40.61,40.61,0,0,1,6.7.6V56.6c-11.9-1.6-20.4.8-24.1,6.9s-1.7,15,5.6,24.9c1,1.3,2,2.6,3.1,3.8-1.1,1.3-2.2,2.5-3.2,3.8-7.5,9.8-9.6,18.6-6,24.8,2.9,5,9.1,7.7,17.8,7.7a55.63,55.63,0,0,0,6.7-.5,92.41,92.41,0,0,0,24.3-7.1,92.54,92.54,0,0,0,25,7.8,46.89,46.89,0,0,0,7.3.6c8.4,0,14.4-2.5,17.3-7.4,3.7-6.2,1.7-15-5.6-24.9A33.46,33.46,0,0,0,126.3,92.7ZM41.9,118c-2.4-4.1-.3-10.9,5.6-18.7.8-1,1.6-2.1,2.5-3.1a116.66,116.66,0,0,0,23.5,18.1c1.9,1.1,3.8,2.2,5.7,3.2C60.4,124.7,45.5,124.3,41.9,118Zm88.7,1c-2.4,4.1-9.4,5.6-19,4.2a81.89,81.89,0,0,1-19.1-5.5q3.3-1.65,6.6-3.6a121,121,0,0,0,23.4-17.4C130.4,106,133.4,114.4,130.6,119Z"/><path class="cls-1" d="M101.4,82.5c.1,0,.2-.1.4-.2a6.89,6.89,0,0,1,.8-.3h0c7.8-3.5,13-10.3,13-20.2,0-13.7-9.9-22.5-25.5-22.5H63.7V98.2a112.23,112.23,0,0,0,11.5,8.1h.3v-10h0V84.8H88.8a14.77,14.77,0,0,0,2.1-.1l7,11.7h0l4.1,6.8c2.9-1.9,5.6-3.9,8.2-6l-6-10.1ZM89.2,50c8.8,0,14.4,4.1,14.4,12.1a11.24,11.24,0,0,1-7.9,11l-13.8-23h7.3ZM82.9,74.1H75.4V59l8.7,14.5h0l.4.6Z"/></g></g></g></symbol>

</defs>
</svg>
