<svg xmlns="http://www.w3.org/2000/svg" viewBox="0 0 487.5 522.33"><defs><style>.cls-1{fill:#146814;}.cls-2{fill:none;stroke:#000;stroke-miterlimit:10;stroke-width:8px;}.cls-3,.cls-4{isolation:isolate;font-family:BirdsofParadise-Regular, Birds of Paradise;}.cls-3{font-size:325.83px;}.cls-4{font-size:273.55px;}</style></defs><g id="Calque_2" data-name="Calque 2"><g id="Calque_1-2" data-name="Calque 1"><g id="Calque_2-2" data-name="Calque 2"><g id="Calque_1-2-2" data-name="Calque 1-2"><path class="cls-1" d="M106.29,45.24c-15.48-17.27-45.35-35-53-20.82C56.19,20.28,70,14.7,100.28,42a29.12,29.12,0,0,0-2.8-.87,15.57,15.57,0,0,0-9.21.47C67.49,49.16,53.82,42.73,50,36.73c.69,9.52-1.39,17.08-5.31,23.36a24.68,24.68,0,0,1-8,7.91c-3.12,1.93-6.07,5.21-8.64,8.78,6.12-19,7-46.83-3-59.25.47.85,13,24.48-5.93,74.19-1.83-8.09-23.69-52.38-3.84-67.89C24,13,15.47,6.75,15.47,6.75A21.64,21.64,0,0,1,17.36.21c6.49,1.56,12,12,12,12C38,18.44,51.34,13.33,64,10.7a40.64,40.64,0,0,1,27,3.53C108,23.07,107.93,38.64,106.29,45.24Z"/><path class="cls-1" d="M473.29,463.34c-8.68,10.83-.14,17.09-.14,17.09a21.68,21.68,0,0,1-1.89,6.5c-6.48-1.56-12-12-12-12-8.66-6.24-22-1.12-34.66,1.51a40.7,40.7,0,0,1-27-3.53c-16.92-8.82-16.91-24.35-15.27-31,15.47,17.27,45.36,35,53,20.83-2.93,4.15-16.77,9.73-47.11-17.62a27.61,27.61,0,0,0,2.89.91,15.57,15.57,0,0,0,9.21-.47c20.79-7.61,34.46-1.17,38.26,4.83-.69-9.52,1.4-17.08,5.31-23.36a24.88,24.88,0,0,1,8-7.91c3.14-1.93,6.09-5.22,8.65-8.79-6.13,19-7.05,46.89,2.95,59.3-.47-.84-13-24.47,5.94-74.17C471.37,403.71,493.13,447.84,473.29,463.34Z"/><polyline class="cls-2" points="4 120.5 4 4 286.6 4"/><polyline class="cls-2" points="483.5 366.75 483.5 483.5 199.79 483.5"/><text class="cls-3" transform="translate(100.75 325.12)">S</text><text class="cls-4" transform="translate(144.36 431.37)">F</text></g></g></g></g></svg>