<svg xmlns="http://www.w3.org/2000/svg" viewBox="0 0 706.8 172.9"><defs><style>.cls-1{fill:#231f20;}.cls-2{fill:#00a7ca;}.cls-3{fill:#b6dde0;}</style></defs><title>logo</title><g id="Layer_2" data-name="Layer 2"><g id="Layer_1-2" data-name="Layer 1"><path d="M241,125.4a8.53,8.53,0,0,1-.5,3,6.75,6.75,0,0,1-1.3,2.2,5.71,5.71,0,0,1-2.1,1.3,9.31,9.31,0,0,1-5.4,0,5.39,5.39,0,0,1-3.4-3.4,8.81,8.81,0,0,1-.5-2.9v-9.1h1.8v9a5.26,5.26,0,0,0,1.3,3.9,4.51,4.51,0,0,0,3.5,1.4,4.6,4.6,0,0,0,3.5-1.3,5.26,5.26,0,0,0,1.3-3.9v-9.1H241v8.9Z"/><path d="M256.8,116.4h1.7v15.7h-1.4L247,119.2v12.9h-1.7V116.4H247l9.9,12.6V116.4Z"/><path d="M275.6,132.1h-1.8V118h-5.3v-1.6h12.3V118h-5.3v14.1Z"/><path d="M286,125v7.1h-1.8V116.4H286v7h9.1v-7h1.8v15.7h-1.8V125Z"/><path d="M312.6,118H303v5.4h8.6V125H303v5.5h9.7v1.6H301.2V116.4h11.4Zm-8.4-5.4,1.8-.8,2.1,3.3h-1.4Z"/><path d="M323.9,127.8h0l-5.8-8.4v12.7h-1.7V116.4h1.8l5.7,8.6,5.7-8.6h1.8v15.7h-1.8V119.4Z"/><path d="M347.2,118h-9.6v5.4h8.6V125h-8.6v5.5h9.7v1.6H335.8V116.4h11.4Z"/><path d="M367.1,116.4h1.5l4.3,13.1,4.5-13.1h1.9l-5.6,15.8h-1.5l-4.3-12.7-4.3,12.7h-1.5l-5.6-15.8h1.9l4.5,13.1Z"/><path d="M396.3,127.3a8.69,8.69,0,0,1-1.6,2.6,7.63,7.63,0,0,1-2.5,1.8,8.13,8.13,0,0,1-6.6,0,7.81,7.81,0,0,1-4.1-4.4,8.31,8.31,0,0,1,0-6.2,8.69,8.69,0,0,1,1.6-2.6,9.42,9.42,0,0,1,2.5-1.8,8.13,8.13,0,0,1,6.6,0,6.42,6.42,0,0,1,2.5,1.8,8.69,8.69,0,0,1,1.6,2.6,8.15,8.15,0,0,1,.6,3.1A7.79,7.79,0,0,1,396.3,127.3Zm-1.7-5.6a5.71,5.71,0,0,0-1.3-2.1,7.18,7.18,0,0,0-2-1.4,6.5,6.5,0,0,0-5,0,4.5,4.5,0,0,0-1.9,1.4,7.43,7.43,0,0,0-1.3,2.1,6.5,6.5,0,0,0,0,5,5.71,5.71,0,0,0,1.3,2.1,7.18,7.18,0,0,0,2,1.4,6.5,6.5,0,0,0,5,0,4.5,4.5,0,0,0,1.9-1.4,7.43,7.43,0,0,0,1.3-2.1,6.5,6.5,0,0,0,0-5Z"/><path d="M411.5,132.1l-4.6-6.1h-4.5v6.1h-1.8V116.4h6.8a8,8,0,0,1,2.3.3,4,4,0,0,1,1.8,1,3.27,3.27,0,0,1,1.1,1.5,5.85,5.85,0,0,1,.4,1.9,5.23,5.23,0,0,1-.3,1.8,3,3,0,0,1-.9,1.3,5,5,0,0,1-1.4,1,4.8,4.8,0,0,1-1.7.5l4.8,6.4Zm-1.2-13.2a5.1,5.1,0,0,0-3-.8h-4.9v6.4h4.8a7.77,7.77,0,0,0,1.6-.2,5.17,5.17,0,0,0,1.3-.6,2.54,2.54,0,0,0,.8-1,3.19,3.19,0,0,0,.3-1.4A2.45,2.45,0,0,0,410.3,118.9Z"/><path d="M430.1,127.3a7.39,7.39,0,0,1-1.7,2.5,7.82,7.82,0,0,1-2.6,1.7,9.34,9.34,0,0,1-3.4.6h-5.5V116.4h5.5a9.34,9.34,0,0,1,3.4.6,7.6,7.6,0,0,1,2.6,1.6,7.39,7.39,0,0,1,1.7,2.5,8.15,8.15,0,0,1,.6,3.1A7.79,7.79,0,0,1,430.1,127.3Zm-1.7-5.5a5.33,5.33,0,0,0-1.3-2,5,5,0,0,0-2.1-1.3,8.08,8.08,0,0,0-2.7-.5h-3.7v12.4h3.7a7.63,7.63,0,0,0,2.7-.5,7.43,7.43,0,0,0,2.1-1.3,5.33,5.33,0,0,0,1.3-2,6.44,6.44,0,0,0,.5-2.4A6.87,6.87,0,0,0,428.4,121.8Z"/><path d="M445.7,123.6a5.09,5.09,0,0,1-1.3,1.6,6.26,6.26,0,0,1-2,1,8.75,8.75,0,0,1-2.4.3h-3.8V132h-1.8V116.3h5.9a8.75,8.75,0,0,1,2.4.3,6.92,6.92,0,0,1,1.9,1,4.81,4.81,0,0,1,1.2,1.6,4.64,4.64,0,0,1,.4,2.1A4.9,4.9,0,0,1,445.7,123.6Zm-2.4-4.7a5,5,0,0,0-3.1-.9h-4v6.9h3.9a11,11,0,0,0,1.8-.2,6.11,6.11,0,0,0,1.4-.7,3.13,3.13,0,0,0,.9-1.1,3.19,3.19,0,0,0,.3-1.4A3.56,3.56,0,0,0,443.3,118.9Z"/><path d="M460.3,132.1l-4.6-6.1h-4.5v6.1h-1.8V116.4h6.8a8,8,0,0,1,2.3.3,4,4,0,0,1,1.8,1,3.27,3.27,0,0,1,1.1,1.5,5.85,5.85,0,0,1,.4,1.9,5.23,5.23,0,0,1-.3,1.8,3,3,0,0,1-.9,1.3,5,5,0,0,1-1.4,1,4.8,4.8,0,0,1-1.7.5l4.8,6.4ZM459,118.9a5.1,5.1,0,0,0-3-.8h-4.9v6.4h4.8a7.77,7.77,0,0,0,1.6-.2,5.17,5.17,0,0,0,1.3-.6,2.54,2.54,0,0,0,.8-1,3.19,3.19,0,0,0,.3-1.4A2.27,2.27,0,0,0,459,118.9Z"/><path d="M477,118h-9.6v5.4H476V125h-8.6v5.5h9.7v1.6H465.6V116.4H477Z"/><path d="M482.2,121.3a1.34,1.34,0,0,0,.7.8,5,5,0,0,0,1.3.7q.9.3,2.1.6a9.53,9.53,0,0,1,3.9,1.6,3.56,3.56,0,0,1,1.2,2.9,3.42,3.42,0,0,1-.4,1.8,3.81,3.81,0,0,1-1.1,1.4,4.61,4.61,0,0,1-1.7.9,7.8,7.8,0,0,1-2.2.3,9,9,0,0,1-3.4-.6,10,10,0,0,1-3-1.9l1.1-1.3a12.31,12.31,0,0,0,2.5,1.7,6.55,6.55,0,0,0,2.9.5,3.73,3.73,0,0,0,2.5-.7,2.46,2.46,0,0,0,1-2,3,3,0,0,0-.2-1,1.56,1.56,0,0,0-.6-.8,6.35,6.35,0,0,0-1.2-.7,16.7,16.7,0,0,0-2-.6,13.7,13.7,0,0,1-2.4-.7,13.13,13.13,0,0,1-1.7-.9,2.56,2.56,0,0,1-1-1.3,4.31,4.31,0,0,1-.3-1.7,3.29,3.29,0,0,1,.4-1.7,4.86,4.86,0,0,1,1.1-1.4,5.07,5.07,0,0,1,1.6-.9,6.65,6.65,0,0,1,2.1-.3,8.53,8.53,0,0,1,3,.5,8.87,8.87,0,0,1,2.5,1.4l-1,1.4a8.46,8.46,0,0,0-2.2-1.3,6,6,0,0,0-3.7-.2,3.7,3.7,0,0,0-1.1.5,2.7,2.7,0,0,0-.7.8,1.8,1.8,0,0,0-.2,1A9.68,9.68,0,0,0,482.2,121.3Z"/><path d="M496.4,121.3a1.34,1.34,0,0,0,.7.8,5,5,0,0,0,1.3.7q.9.3,2.1.6a9.53,9.53,0,0,1,3.9,1.6,3.56,3.56,0,0,1,1.2,2.9,3.42,3.42,0,0,1-.4,1.8,3.81,3.81,0,0,1-1.1,1.4,4.61,4.61,0,0,1-1.7.9,7.8,7.8,0,0,1-2.2.3,9,9,0,0,1-3.4-.6,10,10,0,0,1-3-1.9l1.1-1.3a12.31,12.31,0,0,0,2.5,1.7,6.55,6.55,0,0,0,2.9.5,3.73,3.73,0,0,0,2.5-.7,2.46,2.46,0,0,0,1-2,3,3,0,0,0-.2-1,1.56,1.56,0,0,0-.6-.8,6.35,6.35,0,0,0-1.2-.7,16.7,16.7,0,0,0-2-.6,13.7,13.7,0,0,1-2.4-.7,13.13,13.13,0,0,1-1.7-.9,2.56,2.56,0,0,1-1-1.3,4.31,4.31,0,0,1-.3-1.7,3.29,3.29,0,0,1,.4-1.7,4.86,4.86,0,0,1,1.1-1.4,5.07,5.07,0,0,1,1.6-.9,6.65,6.65,0,0,1,2.1-.3,8.53,8.53,0,0,1,3,.5,8.87,8.87,0,0,1,2.5,1.4l-1,1.4a8.46,8.46,0,0,0-2.2-1.3,6,6,0,0,0-3.7-.2,3.7,3.7,0,0,0-1.1.5,2.7,2.7,0,0,0-.7.8,1.8,1.8,0,0,0-.2,1A3.26,3.26,0,0,0,496.4,121.3Z"/><path d="M529.1,127.3a7.39,7.39,0,0,1-1.7,2.5,7.82,7.82,0,0,1-2.6,1.7,9.34,9.34,0,0,1-3.4.6h-5.5V116.4h5.5a9.34,9.34,0,0,1,3.4.6,7.6,7.6,0,0,1,2.6,1.6,7.39,7.39,0,0,1,1.7,2.5,8.15,8.15,0,0,1,.6,3.1A7.79,7.79,0,0,1,529.1,127.3Zm-1.7-5.5a5.33,5.33,0,0,0-1.3-2,5,5,0,0,0-2.1-1.3,8.08,8.08,0,0,0-2.7-.5h-3.7v12.4h3.7a7.63,7.63,0,0,0,2.7-.5,7.43,7.43,0,0,0,2.1-1.3,5.33,5.33,0,0,0,1.3-2,6.44,6.44,0,0,0,.5-2.4A6.87,6.87,0,0,0,527.4,121.8Z"/><path d="M544.8,118h-9.6v5.4h8.6V125h-8.6v5.5h9.7v1.6H533.4V116.4h11.4Z"/><path d="M554.9,116.4h6.4c3.7,0,6,2.2,6,5.4h0c0,3.6-2.8,5.5-6.4,5.5h-2.6V132h-3.5V116.4Zm6.2,7.9a2.4,2.4,0,0,0,2.7-2.4h0c0-1.5-1.1-2.4-2.8-2.4h-2.7v4.8Z"/><path d="M573.7,116.3h3.2l6.7,15.8H580l-1.4-3.5H572l-1.4,3.5h-3.5Zm3.6,9.2-2.1-5.1-2.1,5.1Z"/><path d="M586,116.4h7.2a6.57,6.57,0,0,1,4.6,1.6,4.84,4.84,0,0,1,1.3,3.6h0a5,5,0,0,1-3.4,4.9l3.8,5.6h-4l-3.4-5h-2.7v5h-3.5V116.4Zm7,7.6c1.7,0,2.6-.9,2.6-2.2h0c0-1.5-1-2.2-2.7-2.2h-3.4v4.5H593Z"/><path d="M615.8,127.3a7.39,7.39,0,0,1-1.7,2.5,7.82,7.82,0,0,1-2.6,1.7,9.34,9.34,0,0,1-3.4.6h-5.5V116.4h5.5a9.34,9.34,0,0,1,3.4.6,7.6,7.6,0,0,1,2.6,1.6,7.39,7.39,0,0,1,1.7,2.5,8.15,8.15,0,0,1,.6,3.1A7.79,7.79,0,0,1,615.8,127.3Zm-1.7-5.5a5.33,5.33,0,0,0-1.3-2,5,5,0,0,0-2.1-1.3,8.08,8.08,0,0,0-2.7-.5h-3.7v12.4H608a7.63,7.63,0,0,0,2.7-.5,7.43,7.43,0,0,0,2.1-1.3,5.33,5.33,0,0,0,1.3-2,6.44,6.44,0,0,0,.5-2.4A6.87,6.87,0,0,0,614.1,121.8Z"/><path d="M631.5,118h-9.6v5.4h8.6V125h-8.6v5.5h9.7v1.6H620.1V116.4h11.4V118Z"/><path d="M636.7,121.3a1.34,1.34,0,0,0,.7.8,5,5,0,0,0,1.3.7q.9.3,2.1.6a9.53,9.53,0,0,1,3.9,1.6,3.56,3.56,0,0,1,1.2,2.9,3.42,3.42,0,0,1-.4,1.8,3.81,3.81,0,0,1-1.1,1.4,4.61,4.61,0,0,1-1.7.9,7.8,7.8,0,0,1-2.2.3,9,9,0,0,1-3.4-.6,10,10,0,0,1-3-1.9l1.1-1.3a12.31,12.31,0,0,0,2.5,1.7,6.55,6.55,0,0,0,2.9.5,3.73,3.73,0,0,0,2.5-.7,2.46,2.46,0,0,0,1-2,3,3,0,0,0-.2-1,1.56,1.56,0,0,0-.6-.8,6.35,6.35,0,0,0-1.2-.7,16.7,16.7,0,0,0-2-.6,13.7,13.7,0,0,1-2.4-.7,13.13,13.13,0,0,1-1.7-.9,2.56,2.56,0,0,1-1-1.3,4.31,4.31,0,0,1-.3-1.7,3.29,3.29,0,0,1,.4-1.7,4.86,4.86,0,0,1,1.1-1.4,5.07,5.07,0,0,1,1.6-.9,6.65,6.65,0,0,1,2.1-.3,8.53,8.53,0,0,1,3,.5,8.87,8.87,0,0,1,2.5,1.4l-1,1.4a8.46,8.46,0,0,0-2.2-1.3,6,6,0,0,0-3.7-.2,3.7,3.7,0,0,0-1.1.5,2.7,2.7,0,0,0-.7.8,1.8,1.8,0,0,0-.2,1A9.68,9.68,0,0,0,636.7,121.3Z"/><path d="M651.5,116.4v15.7h-1.8V116.4Z"/><path d="M667,131.7a8.57,8.57,0,0,1-3.6.7,8.45,8.45,0,0,1-3.3-.6,7.39,7.39,0,0,1-2.5-1.7,7.6,7.6,0,0,1-1.6-2.6,8.28,8.28,0,0,1-.5-3.2,8.15,8.15,0,0,1,.6-3.1,7.6,7.6,0,0,1,1.6-2.6,9.42,9.42,0,0,1,2.5-1.8,6.83,6.83,0,0,1,3.2-.7,9.72,9.72,0,0,1,1.8.1,6.58,6.58,0,0,1,1.5.4,5.39,5.39,0,0,1,1.3.7l1.2.9-1.1,1.3a5.5,5.5,0,0,0-.9-.7,10.91,10.91,0,0,0-1.1-.6,5,5,0,0,0-1.3-.4,7.57,7.57,0,0,0-1.5-.1,6,6,0,0,0-2.4.5,5.22,5.22,0,0,0-1.9,1.4,7.19,7.19,0,0,0-1.2,2.1,6.9,6.9,0,0,0-.4,2.5,7.46,7.46,0,0,0,.4,2.6,7.19,7.19,0,0,0,1.2,2.1,6,6,0,0,0,2,1.4,7.08,7.08,0,0,0,2.6.5,7,7,0,0,0,2.5-.5,7.49,7.49,0,0,0,2-1.1v-3.9h-4.8v-1.6h6.5v6.2A16.65,16.65,0,0,1,667,131.7Z"/><path d="M685.2,116.4h1.7v15.7h-1.4l-10.1-12.9v12.9h-1.7V116.4h1.7l9.9,12.6V116.4Z"/><path class="cls-1" d="M249.3,79.4H240V96.1H227.8V40.5h22.7c13.3,0,21.3,7.9,21.3,19.2v.1c0,12.9-10,19.6-22.5,19.6m10.1-19.5c0-5.5-3.8-8.4-9.9-8.4h-9.4v17h9.7c6.1,0,9.7-3.7,9.7-8.4v-.2Z"/><path class="cls-1" d="M316.6,96l-5.1-12.5H288L282.9,96H270.4l23.8-55.9h11.3L329.3,96ZM299.8,54.8l-7.4,18h14.8Z"/><path class="cls-1" d="M371.6,96,359.7,78.2h-9.6V96H337.9V40.5h25.4c13.1,0,20.9,6.9,20.9,18.3V59c0,9-4.8,14.6-11.9,17.2L385.9,96Zm.3-36.5c0-5.2-3.6-7.9-9.6-7.9H350.2V67.5h12.4c5.9,0,9.4-3.2,9.4-7.9v-.1Z"/><path class="cls-1" d="M454.5,95.6h-6.6l-6.4-14.3H412l-6.4,14.3h-6.3L424,41h5.7ZM426.8,48.1,414.4,75.8h24.7Z"/><path class="cls-1" d="M478.7,95.6h-6.1V47H454.4V41.3h42.5V47H478.7V95.6Z"/><path class="cls-1" d="M555.6,79.1a26.51,26.51,0,0,1-5.7,9,26.88,26.88,0,0,1-8.8,6.2,29.5,29.5,0,0,1-22.6.1,25.79,25.79,0,0,1-8.7-6.1,27.41,27.41,0,0,1-5.6-8.9,29.88,29.88,0,0,1-2-10.7,29.48,29.48,0,0,1,2-10.7,25.17,25.17,0,0,1,5.7-8.9,26.88,26.88,0,0,1,8.8-6.2A27.83,27.83,0,0,1,530,40.6a29.56,29.56,0,0,1,11.3,2.2,25.79,25.79,0,0,1,8.7,6.1,27.41,27.41,0,0,1,5.6,8.9,29.88,29.88,0,0,1,2,10.7A27.72,27.72,0,0,1,555.6,79.1Zm-5.9-19.3a21,21,0,0,0-4.5-7.1,22,22,0,0,0-6.8-4.8,20.38,20.38,0,0,0-8.6-1.8,22,22,0,0,0-8.6,1.7,21.6,21.6,0,0,0-6.7,4.8,22.37,22.37,0,0,0-4.4,7.1,22.81,22.81,0,0,0-1.6,8.7,23.69,23.69,0,0,0,1.6,8.8,21,21,0,0,0,4.5,7.1,23.29,23.29,0,0,0,6.8,4.8,20.38,20.38,0,0,0,8.6,1.8,22,22,0,0,0,8.6-1.7,21.6,21.6,0,0,0,6.7-4.8,22.37,22.37,0,0,0,4.4-7.1,22.81,22.81,0,0,0,1.6-8.7A25.46,25.46,0,0,0,549.7,59.8Z"/><path class="cls-1" d="M596.6,80.7h-.3l-19.8-29V95.6h-6V41.3h6.2l19.8,29.6,19.8-29.6h6.2V95.5h-6.1V51.6Z"/><path class="cls-1" d="M644.5,41.3V95.5h-6.1V41.3Z"/><path class="cls-1" d="M702.5,90.9a24.78,24.78,0,0,1-4.9,3,25.45,25.45,0,0,1-5.7,1.9,35.31,35.31,0,0,1-6.7.7,27,27,0,0,1-19.4-8.1,28.29,28.29,0,0,1-5.7-8.9,28.73,28.73,0,0,1-2.1-11,28.22,28.22,0,0,1,2.1-10.9,30,30,0,0,1,5.7-9,24.22,24.22,0,0,1,8.7-6,26.69,26.69,0,0,1,11-2.2,34,34,0,0,1,6.7.6,29.49,29.49,0,0,1,5.5,1.7,30.38,30.38,0,0,1,4.7,2.7c1.4,1.1,2.8,2.2,4.2,3.5l-4.2,4.5a29.28,29.28,0,0,0-7.5-5.3,22.08,22.08,0,0,0-17.9-.4,19.82,19.82,0,0,0-6.7,4.7,20.72,20.72,0,0,0-4.4,7.1,23,23,0,0,0-1.6,8.8,23,23,0,0,0,1.6,8.8,22.37,22.37,0,0,0,4.4,7.1A21.6,21.6,0,0,0,677,89a19.28,19.28,0,0,0,8.3,1.7,20.6,20.6,0,0,0,9.6-2.1,34,34,0,0,0,7.9-5.8l4,4A27.6,27.6,0,0,1,702.5,90.9Z"/><path class="cls-2" d="M86.5,0A86.45,86.45,0,1,0,173,86.4,86.57,86.57,0,0,0,86.5,0m0,159.8a73.3,73.3,0,1,1,73.3-73.3,73.41,73.41,0,0,1-73.3,73.3"/><path class="cls-3" d="M86.5,136c-4.3,0-8.2-3.3-11.5-8.8-1.7.5-3.3,1-4.9,1.4,4.4,7.8,10.1,12.5,16.4,12.5s11.8-4.4,16.1-11.8c-1.6-.4-3.2-.9-4.9-1.4C94.5,132.9,90.6,136,86.5,136Z"/><path class="cls-3" d="M63.7,110.5a75.33,75.33,0,0,0,2.4,8.8c1.6-.3,3.2-.8,4.9-1.2-.4-1.1-.7-2.3-1.1-3.4C67.8,113.3,65.7,111.9,63.7,110.5Z"/><path class="cls-3" d="M101.9,118.7c1.6.5,3.3.9,4.8,1.3a66.48,66.48,0,0,0,2.7-9.8c-2,1.4-4,2.7-6.1,4C102.9,115.8,102.4,117.3,101.9,118.7Z"/><path class="cls-3" d="M78.4,67.9l-.6.3v3.7h3.1Z"/><path class="cls-3" d="M97.5,69.8c-.6-.3-1.2-.7-1.8-1l.9,1.5A3.6,3.6,0,0,0,97.5,69.8Z"/><path class="cls-3" d="M94.5,66.7c2.3-.9,4.6-1.6,6.8-2.3a8.52,8.52,0,0,0,.3-2.3,11.59,11.59,0,0,0-.5-3.4c-3.1.9-6.2,1.9-9.4,3.1Z"/><path class="cls-3" d="M126.4,92.7c1.2-1.4,2.4-2.8,3.5-4.2,7.5-9.8,9.6-18.6,6-24.8-3-5.2-9.5-7.8-18.6-7.7a25.3,25.3,0,0,1,.6,5.6h.2c6.6,0,11.2,1.7,13,4.8,2.4,4.1.3,10.9-5.6,18.7-.9,1.2-1.9,2.3-2.9,3.5a112.55,112.55,0,0,0-11.4-9.9,27.32,27.32,0,0,1-4.5,3.6,98.9,98.9,0,0,1,12.1,10.4,117.67,117.67,0,0,1-22.4,16.7c-3.5,2-7,3.8-10.4,5.4-3.2-1.5-6.4-3.3-9.6-5.2A113.3,113.3,0,0,1,53.9,92.2a86.69,86.69,0,0,1,7.7-6.8v-7a112.89,112.89,0,0,0-11.5,9.7C42.4,79,39.6,70.8,42.3,66.3c1.8-3,6.3-4.6,12.6-4.6a40.6,40.6,0,0,1,6.7.6V56.6c-11.9-1.6-20.4.8-24.1,6.9s-1.7,15,5.6,24.9c1,1.3,2,2.6,3.1,3.8C45.1,93.5,44,94.7,43,96c-7.5,9.8-9.6,18.6-6,24.8,2.9,5,9.1,7.7,17.8,7.7a54.33,54.33,0,0,0,6.7-.5,92.63,92.63,0,0,0,24.3-7.1,92.75,92.75,0,0,0,25,7.8,47.82,47.82,0,0,0,7.3.6c8.4,0,14.4-2.5,17.3-7.4,3.7-6.2,1.7-15-5.6-24.9A33.74,33.74,0,0,0,126.4,92.7ZM42,118c-2.4-4.1-.3-10.9,5.6-18.7.8-1,1.6-2.1,2.5-3.1a116.74,116.74,0,0,0,23.5,18.1c1.9,1.1,3.8,2.2,5.7,3.2C60.5,124.7,45.6,124.3,42,118Zm88.7,1c-2.4,4.1-9.4,5.6-19,4.2a82.18,82.18,0,0,1-19.1-5.5q3.3-1.65,6.6-3.6a120.68,120.68,0,0,0,23.4-17.4C130.5,106,133.5,114.4,130.7,119Z"/><path class="cls-2" d="M101.5,82.5c.1,0,.2-.1.4-.2s.5-.2.8-.3h0c7.8-3.5,13-10.3,13-20.2,0-13.7-9.9-22.5-25.5-22.5H63.8V98.2a111.72,111.72,0,0,0,11.5,8.1h.3v-10h0V84.8H88.9a14.77,14.77,0,0,0,2.1-.1l7,11.7h0l4.1,6.8c2.9-1.9,5.6-3.9,8.2-6l-6-10.1ZM89.3,50c8.8,0,14.4,4.1,14.4,12.1a11.25,11.25,0,0,1-7.9,11L82,50.1h7.3ZM83,74.1H75.5V59l8.7,14.5h0l.4.6Z"/></g></g></svg>