<?xml version="1.0" encoding="UTF-8" standalone="no"?>
<svg
   xmlns="http://www.w3.org/2000/svg" 
   xmlns:xlink="http://www.w3.org/1999/xlink"
   version="1.1"
   id="pardesign_round_logo"
   x="0px"
   y="0px"
   viewBox="0 0 172.911 172.91299"
   xml:space="preserve">
<path
   d="m 125.882,70.459 c 0,-18.855 -13.58,-30.982 -35.074,-30.982 H 70.634 54.415 v 92.302 h 16.219 v -29.668 h 18.325 c 0.977,0 1.939,-0.035 2.895,-0.083 l 17.81,29.751 h 16.219 L 106.294,99.053 c 11.63,-4.56 19.588,-14.176 19.588,-28.594 M 70.634,87.471 V 66.577 L 83.139,87.471 Z M 98.484,86 79.474,54.242 h 10.019 c 12.127,0 19.909,5.669 19.909,16.614 0,7.167 -4.038,12.658 -10.918,15.144"
   id="path3739" style="fill:#ffffff" />
<path
   d="M 86.457,0 C 38.784,0 0,38.783 0,86.454 c 0,47.674 38.783,86.459 86.457,86.459 47.67,0 86.454,-38.785 86.454,-86.459 C 172.91,38.783 134.127,0 86.457,0 m 0,159.767 c -40.424,0 -73.314,-32.887 -73.314,-73.313 0,-40.421 32.89,-73.309 73.314,-73.309 40.421,0 73.308,32.887 73.308,73.309 0,40.427 -32.887,73.313 -73.308,73.313"
   id="path3741" style="fill:#ffffff" />
</svg>